<svg width="90" height="25" viewBox="0 0 90 25" fill="none" xmlns="http://www.w3.org/2000/svg">
<rect width="90" height="25" fill="white"/>
<path d="M13.6986 20.544C10.9466 20.5227 8.82396 19.6693 7.33062 17.984C5.85862 16.2987 5.12262 14.016 5.12262 11.136C5.12262 8.256 5.85862 5.984 7.33062 4.32C8.82396 2.656 10.9466 1.81333 13.6986 1.792C14.6586 1.792 15.48 1.86667 16.1626 2.016C16.8666 2.144 17.6133 2.368 18.4026 2.688V5.6C17.6346 5.23733 16.8986 4.98133 16.1946 4.832C15.512 4.68267 14.7546 4.608 13.9226 4.608C11.9386 4.62933 10.4986 5.22667 9.60262 6.4C8.70662 7.552 8.25862 9.12 8.25862 11.104C8.25862 13.1307 8.70662 14.7413 9.60262 15.936C10.4986 17.1307 11.9173 17.7387 13.8586 17.76C15.3733 17.76 17.0266 17.3013 18.8186 16.384L19.7786 19.008C17.8373 20.032 15.8106 20.544 13.6986 20.544ZM64.4211 1.92V4.736H63.6851C61.8505 4.736 60.0691 5.472 58.3411 6.944V20H55.3331V2.304H58.3411V4.288C60.0905 2.70933 61.8718 1.92 63.6851 1.92H64.4211ZM72.8786 11.392C72.9213 13.3547 73.412 14.9227 74.3506 16.096C75.2893 17.2693 76.7826 17.856 78.8306 17.856C80.388 17.856 82.0946 17.4187 83.9506 16.544L84.8786 19.04C82.9373 20.0427 80.836 20.544 78.5746 20.544C76.6973 20.544 75.0973 20.1493 73.7746 19.36C72.452 18.5707 71.4493 17.472 70.7666 16.064C70.084 14.656 69.7426 13.0133 69.7426 11.136C69.7426 9.152 70.0946 7.46667 70.7986 6.08C71.524 4.672 72.4946 3.60533 73.7106 2.88C74.9266 2.15467 76.292 1.792 77.8066 1.792C80.132 1.792 81.956 2.51733 83.2786 3.968C84.6013 5.41867 85.2626 7.49867 85.2626 10.208V11.392H72.8786ZM77.8066 4.48C75.1613 4.48 73.5826 5.94133 73.0706 8.864H82.0946C81.988 7.37067 81.5826 6.272 80.8786 5.568C80.1746 4.84267 79.1506 4.48 77.8066 4.48Z" fill="#32217F"/>
<path d="M50.5421 7.58231C51.289 10.3891 45.8079 14.3066 38.2997 16.3323C30.7915 18.358 24.0993 17.7248 23.3524 14.9181C22.6055 12.1113 28.0866 8.19377 35.5948 6.16806C43.1031 4.14235 49.7952 4.77553 50.5421 7.58231ZM26.8869 13.9645C27.4397 16.0415 32.3919 16.5101 37.9481 15.011C43.5042 13.512 47.5603 10.613 47.0076 8.53592C46.4549 6.45888 41.5026 5.99032 35.9465 7.48936C30.3903 8.98841 26.3342 11.8874 26.8869 13.9645Z" fill="url(#paint0_linear_186_14)"/>
<ellipse cx="36.9127" cy="10.9865" rx="8.42828" ry="8.48646" fill="url(#paint1_linear_186_14)"/>
<path d="M46.801 5.22612C48.5729 5.54998 49.7911 6.18399 50.3172 7.05599C50.8432 7.92799 50.6559 9.00294 49.7766 10.1585C48.8973 11.314 47.3612 12.5038 45.3433 13.5922C43.3253 14.6807 40.9066 15.6242 38.3624 16.3153C35.8182 17.0065 33.2506 17.4175 30.9521 17.5016C28.6536 17.5856 26.7163 17.3394 25.3609 16.791C24.0055 16.2425 23.2863 15.4138 23.2853 14.3991C23.2843 13.3845 24.0014 12.2248 25.3551 11.0519L28.3689 11.1034C27.3672 11.9714 26.8365 12.8296 26.8373 13.5804C26.838 14.3313 27.3702 14.9445 28.3733 15.3504C29.3763 15.7563 30.8098 15.9385 32.5108 15.8763C34.2117 15.814 36.1117 15.5099 37.9945 14.9984C39.8772 14.487 41.6671 13.7888 43.1604 12.9833C44.6537 12.1778 45.7904 11.2974 46.4411 10.4423C47.0918 9.5872 47.2304 8.79173 46.8411 8.14644C46.4519 7.50115 45.5503 7.03198 44.2391 6.79232L46.801 5.22612Z" fill="url(#paint2_linear_186_14)"/>
<defs>
<linearGradient id="paint0_linear_186_14" x1="35.5948" y1="6.16806" x2="38.3346" y2="16.3229" gradientUnits="userSpaceOnUse">
<stop stop-color="#4D47A7"/>
<stop offset="1" stop-color="#4D47A7"/>
</linearGradient>
<linearGradient id="paint1_linear_186_14" x1="41.6701" y1="4.06719" x2="30.864" y2="16.9455" gradientUnits="userSpaceOnUse">
<stop stop-color="#CFCCFF"/>
<stop offset="1" stop-color="#2617FC"/>
</linearGradient>
<linearGradient id="paint2_linear_186_14" x1="36.9473" y1="9.77868" x2="38.3176" y2="16.3286" gradientUnits="userSpaceOnUse">
<stop stop-color="#4D47A7"/>
<stop offset="1" stop-color="#D9B4FA"/>
</linearGradient>
</defs>
</svg>
