<svg width="300" height="100" viewBox="0 0 300 100" fill="none" xmlns="http://www.w3.org/2000/svg">
<rect width="300" height="100" fill="white"/>
<path d="M42.4015 74.2987C32.9415 74.2254 25.6449 71.292 20.5115 65.4987C15.4515 59.7054 12.9215 51.8587 12.9215 41.9587C12.9215 32.0587 15.4515 24.2487 20.5115 18.5287C25.6449 12.8087 32.9415 9.91204 42.4015 9.83871C45.7015 9.83871 48.5249 10.0954 50.8715 10.6087C53.2915 11.0487 55.8582 11.8187 58.5715 12.9187V22.9287C55.9315 21.682 53.4015 20.802 50.9815 20.2887C48.6349 19.7754 46.0315 19.5187 43.1715 19.5187C36.3515 19.592 31.4015 21.6454 28.3215 25.6787C25.2415 29.6387 23.7015 35.0287 23.7015 41.8487C23.7015 48.8154 25.2415 54.352 28.3215 58.4587C31.4015 62.5654 36.2782 64.6554 42.9515 64.7287C48.1582 64.7287 53.8415 63.152 60.0015 59.9987L63.3015 69.0187C56.6282 72.5387 49.6615 74.2987 42.4015 74.2987ZM216.76 10.2787V19.9587H214.23C207.923 19.9587 201.8 22.4887 195.86 27.5487V72.4287H185.52V11.5987H195.86V18.4187C201.873 12.992 207.997 10.2787 214.23 10.2787H216.76ZM245.833 42.8387C245.979 49.5854 247.666 54.9754 250.893 59.0087C254.119 63.042 259.253 65.0587 266.293 65.0587C271.646 65.0587 277.513 63.5554 283.893 60.5487L287.083 69.1287C280.409 72.5754 273.186 74.2987 265.413 74.2987C258.959 74.2987 253.459 72.942 248.913 70.2287C244.366 67.5154 240.919 63.7387 238.573 58.8987C236.226 54.0587 235.053 48.412 235.053 41.9587C235.053 35.1387 236.263 29.3454 238.683 24.5787C241.176 19.7387 244.513 16.072 248.693 13.5787C252.873 11.0854 257.566 9.83871 262.773 9.83871C270.766 9.83871 277.036 12.332 281.583 17.3187C286.129 22.3054 288.403 29.4554 288.403 38.7687V42.8387H245.833ZM262.773 19.0787C253.679 19.0787 248.253 24.102 246.493 34.1487H277.513C277.146 29.0154 275.753 25.2387 273.333 22.8187C270.913 20.3254 267.393 19.0787 262.773 19.0787Z" fill="#32217F"/>
<path d="M177.376 28.3795C180.238 38.8848 159.234 53.5475 130.462 61.1295C101.69 68.7114 76.0448 66.3415 73.1826 55.8361C70.3203 45.3307 91.3245 30.6681 120.097 23.0861C148.869 15.5042 174.514 17.8741 177.376 28.3795ZM86.7272 52.2669C88.8453 60.041 107.823 61.7947 129.114 56.184C150.406 50.5733 165.949 39.7228 163.831 31.9487C161.713 24.1746 142.736 22.4208 121.444 28.0316C100.152 33.6423 84.6091 44.4928 86.7272 52.2669Z" fill="url(#paint0_linear_194_269)"/>
<ellipse cx="125.142" cy="41.1215" rx="32.2979" ry="31.7636" fill="url(#paint1_linear_194_269)"/>
<path d="M163.04 19.5606C169.83 20.7727 174.498 23.1458 176.514 26.4095C178.53 29.6733 177.812 33.6967 174.442 38.0217C171.073 42.3467 165.186 46.7997 157.454 50.8737C149.721 54.9477 140.452 58.4791 130.702 61.0659C120.952 63.6527 111.114 65.191 102.305 65.5058C93.4971 65.8205 86.0734 64.899 80.8794 62.8461C75.6853 60.7932 72.9294 57.6915 72.9254 53.8939C72.9215 50.0963 75.6696 45.7555 80.857 41.3655L92.4063 41.5585C88.5676 44.8071 86.534 48.0194 86.5369 50.8296C86.5398 53.6399 88.5792 55.9352 92.4229 57.4543C96.2666 58.9735 101.76 59.6554 108.278 59.4225C114.796 59.1896 122.077 58.0513 129.292 56.137C136.507 54.2227 143.366 51.6095 149.089 48.5947C154.811 45.5799 159.167 42.2846 161.661 39.084C164.154 35.8835 164.685 32.9061 163.194 30.4909C161.702 28.0757 158.247 26.3196 153.222 25.4226L163.04 19.5606Z" fill="url(#paint2_linear_194_269)"/>
<path d="M25.768 91.7723C25.768 92.1863 25.687 92.5523 25.525 92.8703C25.369 93.1823 25.144 93.4433 24.85 93.6533C24.562 93.8693 24.22 94.0313 23.824 94.1393C23.434 94.2473 23.002 94.3013 22.528 94.3013C22.054 94.3013 21.619 94.2473 21.223 94.1393C20.833 94.0313 20.491 93.8693 20.197 93.6533C19.909 93.4433 19.684 93.1823 19.522 92.8703C19.366 92.5523 19.288 92.1863 19.288 91.7723V90.5033C19.288 90.0893 19.366 89.7263 19.522 89.4143C19.684 89.0963 19.909 88.8353 20.197 88.6313C20.491 88.4213 20.833 88.2653 21.223 88.1633C21.619 88.0553 22.054 88.0013 22.528 88.0013C23.002 88.0013 23.434 88.0553 23.824 88.1633C24.22 88.2653 24.562 88.4213 24.85 88.6313C25.144 88.8353 25.369 89.0963 25.525 89.4143C25.687 89.7263 25.768 90.0893 25.768 90.5033V91.7723ZM24.85 90.8363C24.85 90.4283 24.805 90.0983 24.715 89.8463C24.631 89.5883 24.496 89.3933 24.31 89.2613C24.13 89.1233 23.89 89.0303 23.59 88.9823C23.296 88.9283 22.942 88.9013 22.528 88.9013C22.114 88.9013 21.76 88.9283 21.466 88.9823C21.178 89.0303 20.941 89.1233 20.755 89.2613C20.569 89.3993 20.431 89.5973 20.341 89.8553C20.257 90.1073 20.215 90.4343 20.215 90.8363V91.4393C20.215 91.8053 20.257 92.1143 20.341 92.3663C20.431 92.6123 20.569 92.8103 20.755 92.9603C20.941 93.1103 21.178 93.2183 21.466 93.2843C21.76 93.3503 22.114 93.3833 22.528 93.3833C22.942 93.3833 23.296 93.3503 23.59 93.2843C23.89 93.2123 24.13 93.1013 24.31 92.9513C24.496 92.8013 24.631 92.6033 24.715 92.3573C24.805 92.1053 24.85 91.7993 24.85 91.4393V90.8363ZM23.68 90.4583C23.614 90.4283 23.545 90.4043 23.473 90.3863C23.401 90.3623 23.326 90.3443 23.248 90.3323C23.176 90.3143 23.101 90.3023 23.023 90.2963C22.951 90.2903 22.879 90.2873 22.807 90.2873C22.657 90.2873 22.522 90.3053 22.402 90.3413C22.282 90.3773 22.183 90.4313 22.105 90.5033C22.033 90.5753 21.979 90.6653 21.943 90.7733C21.907 90.8753 21.889 90.9983 21.889 91.1423C21.889 91.2983 21.907 91.4333 21.943 91.5473C21.979 91.6553 22.039 91.7423 22.123 91.8083C22.183 91.8623 22.258 91.9043 22.348 91.9343C22.444 91.9583 22.555 91.9703 22.681 91.9703C22.825 91.9703 22.969 91.9613 23.113 91.9433C23.257 91.9193 23.389 91.8953 23.509 91.8713C23.629 91.8413 23.725 91.8173 23.797 91.7993C23.869 91.7753 23.905 91.7633 23.905 91.7633L24.157 92.6183C23.905 92.7143 23.653 92.7923 23.401 92.8523C23.155 92.9123 22.912 92.9423 22.672 92.9423C22.432 92.9423 22.213 92.9123 22.015 92.8523C21.817 92.7923 21.643 92.7053 21.493 92.5913C21.301 92.4473 21.154 92.2583 21.052 92.0243C20.95 91.7843 20.899 91.5083 20.899 91.1963C20.899 90.9263 20.932 90.6803 20.998 90.4583C21.07 90.2363 21.175 90.0443 21.313 89.8823C21.463 89.7083 21.652 89.5733 21.88 89.4773C22.108 89.3813 22.372 89.3333 22.672 89.3333C22.9 89.3333 23.122 89.3633 23.338 89.4233C23.554 89.4833 23.752 89.5583 23.932 89.6483L23.68 90.4583ZM31.1809 88.1363C31.2649 87.9083 31.3849 87.7163 31.5409 87.5603C31.7029 87.3983 31.8889 87.2753 32.0989 87.1913C32.3149 87.1013 32.5429 87.0563 32.7829 87.0563C33.0529 87.0563 33.3079 87.1133 33.5479 87.2273C33.7939 87.3413 33.9919 87.5123 34.1419 87.7403C34.2979 87.9623 34.3759 88.2443 34.3759 88.5863C34.3759 88.8623 34.3219 89.1203 34.2139 89.3603C34.1119 89.5943 33.9769 89.8373 33.8089 90.0893L32.1889 92.5373H34.4029V93.4463H31.0369V92.5283L33.0169 89.6393C33.1369 89.4653 33.2239 89.3243 33.2779 89.2163C33.3319 89.1023 33.3649 89.0033 33.3769 88.9193C33.3949 88.8353 33.4039 88.7513 33.4039 88.6673C33.4039 88.5233 33.3739 88.4033 33.3139 88.3073C33.2539 88.2113 33.1759 88.1393 33.0799 88.0913C32.9839 88.0433 32.8819 88.0193 32.7739 88.0193C32.6599 88.0133 32.5519 88.0343 32.4499 88.0823C32.3539 88.1243 32.2669 88.1873 32.1889 88.2713C32.1109 88.3493 32.0509 88.4453 32.0089 88.5593L31.1809 88.1363ZM36.3013 88.8743C36.3013 88.2623 36.4723 87.7973 36.8143 87.4793C37.1563 87.1553 37.6243 86.9933 38.2183 86.9933C38.8123 86.9933 39.2743 87.1613 39.6043 87.4973C39.9343 87.8333 40.0993 88.2953 40.0993 88.8833V91.7723C40.0993 92.1383 40.0213 92.4563 39.8653 92.7263C39.7093 92.9903 39.4873 93.1943 39.1993 93.3383C38.9173 93.4763 38.5873 93.5453 38.2093 93.5453C37.8553 93.5453 37.5343 93.4793 37.2463 93.3473C36.9583 93.2153 36.7273 93.0173 36.5533 92.7533C36.3853 92.4893 36.3013 92.1623 36.3013 91.7723V88.8743ZM37.3003 91.5923C37.3003 91.7843 37.3333 91.9523 37.3993 92.0963C37.4713 92.2343 37.5733 92.3423 37.7053 92.4203C37.8433 92.4923 38.0083 92.5283 38.2003 92.5283C38.3923 92.5283 38.5543 92.4893 38.6863 92.4113C38.8183 92.3333 38.9203 92.2223 38.9923 92.0783C39.0643 91.9343 39.1003 91.7693 39.1003 91.5833V89.1623C39.1003 88.9043 39.0733 88.6943 39.0193 88.5323C38.9653 88.3703 38.8723 88.2503 38.7403 88.1723C38.6083 88.0883 38.4283 88.0463 38.2003 88.0463C37.9903 88.0463 37.8193 88.0853 37.6873 88.1633C37.5553 88.2413 37.4563 88.3643 37.3903 88.5323C37.3303 88.6943 37.3003 88.9043 37.3003 89.1623V91.5923ZM41.9366 88.1363C42.0206 87.9083 42.1406 87.7163 42.2966 87.5603C42.4586 87.3983 42.6446 87.2753 42.8546 87.1913C43.0706 87.1013 43.2986 87.0563 43.5386 87.0563C43.8086 87.0563 44.0636 87.1133 44.3036 87.2273C44.5496 87.3413 44.7476 87.5123 44.8976 87.7403C45.0536 87.9623 45.1316 88.2443 45.1316 88.5863C45.1316 88.8623 45.0776 89.1203 44.9696 89.3603C44.8676 89.5943 44.7326 89.8373 44.5646 90.0893L42.9446 92.5373H45.1586V93.4463H41.7926V92.5283L43.7726 89.6393C43.8926 89.4653 43.9796 89.3243 44.0336 89.2163C44.0876 89.1023 44.1206 89.0033 44.1326 88.9193C44.1506 88.8353 44.1596 88.7513 44.1596 88.6673C44.1596 88.5233 44.1296 88.4033 44.0696 88.3073C44.0096 88.2113 43.9316 88.1393 43.8356 88.0913C43.7396 88.0433 43.6376 88.0193 43.5296 88.0193C43.4156 88.0133 43.3076 88.0343 43.2056 88.0823C43.1096 88.1243 43.0226 88.1873 42.9446 88.2713C42.8666 88.3493 42.8066 88.4453 42.7646 88.5593L41.9366 88.1363ZM49.199 88.0463C48.905 88.0463 48.671 88.1123 48.497 88.2443C48.329 88.3763 48.206 88.5533 48.128 88.7753C48.056 88.9973 48.02 89.2403 48.02 89.5043V89.9813C48.056 89.9273 48.137 89.8823 48.263 89.8463C48.389 89.8043 48.521 89.7743 48.659 89.7563C48.797 89.7323 48.896 89.7203 48.956 89.7203C49.31 89.7203 49.631 89.8043 49.919 89.9723C50.213 90.1343 50.444 90.3563 50.612 90.6383C50.786 90.9203 50.873 91.2413 50.873 91.6013C50.873 91.8713 50.822 92.1233 50.72 92.3573C50.624 92.5913 50.489 92.7983 50.315 92.9783C50.141 93.1523 49.937 93.2903 49.703 93.3923C49.475 93.4883 49.226 93.5363 48.956 93.5363C48.596 93.5363 48.269 93.4493 47.975 93.2753C47.687 93.1013 47.459 92.8703 47.291 92.5823C47.123 92.2883 47.039 91.9613 47.039 91.6013V89.2883C47.039 88.8383 47.129 88.4543 47.309 88.1363C47.489 87.8183 47.744 87.5753 48.074 87.4073C48.41 87.2333 48.8 87.1463 49.244 87.1463H49.55V88.0463H49.199ZM48.956 90.6923C48.83 90.6923 48.71 90.7163 48.596 90.7643C48.482 90.8123 48.383 90.8813 48.299 90.9713C48.215 91.0553 48.146 91.1543 48.092 91.2683C48.044 91.3763 48.02 91.4933 48.02 91.6193C48.02 91.7873 48.062 91.9433 48.146 92.0873C48.236 92.2313 48.35 92.3453 48.488 92.4293C48.632 92.5133 48.788 92.5553 48.956 92.5553C49.082 92.5553 49.202 92.5313 49.316 92.4833C49.43 92.4353 49.529 92.3693 49.613 92.2853C49.697 92.1953 49.763 92.0933 49.811 91.9793C49.859 91.8653 49.883 91.7453 49.883 91.6193C49.883 91.4933 49.859 91.3763 49.811 91.2683C49.763 91.1543 49.697 91.0553 49.613 90.9713C49.529 90.8813 49.43 90.8123 49.316 90.7643C49.202 90.7163 49.082 90.6923 48.956 90.6923ZM58.897 88.1903C58.783 88.1423 58.648 88.1063 58.492 88.0823C58.336 88.0523 58.189 88.0373 58.051 88.0373C57.853 88.0373 57.685 88.0643 57.547 88.1183C57.415 88.1723 57.313 88.2563 57.241 88.3703C57.169 88.4843 57.133 88.6343 57.133 88.8203V91.7723C57.133 91.9583 57.166 92.1083 57.232 92.2223C57.298 92.3303 57.391 92.4113 57.511 92.4653C57.637 92.5133 57.79 92.5373 57.97 92.5373C58.156 92.5373 58.339 92.5193 58.519 92.4833C58.699 92.4473 58.855 92.4083 58.987 92.3663C59.125 92.3243 59.209 92.3003 59.239 92.2943L59.383 93.2393C59.125 93.3353 58.873 93.4103 58.627 93.4643C58.381 93.5243 58.144 93.5543 57.916 93.5543C57.544 93.5543 57.223 93.4883 56.953 93.3563C56.689 93.2183 56.485 93.0173 56.341 92.7533C56.203 92.4893 56.134 92.1683 56.134 91.7903V88.8473C56.134 88.4513 56.209 88.1183 56.359 87.8483C56.515 87.5783 56.722 87.3773 56.98 87.2453C57.244 87.1073 57.541 87.0383 57.871 87.0383C58.087 87.0383 58.303 87.0653 58.519 87.1193C58.735 87.1673 58.951 87.2453 59.167 87.3533L58.897 88.1903ZM64.3398 91.7813C64.3398 92.3093 64.2048 92.7353 63.9348 93.0593C63.6648 93.3773 63.2538 93.5363 62.7018 93.5363C62.3058 93.5363 61.9818 93.4553 61.7298 93.2933C61.4838 93.1253 61.3008 92.9093 61.1808 92.6453C61.0668 92.3753 61.0098 92.0873 61.0098 91.7813V90.5933C61.0098 90.2093 61.0728 89.8883 61.1988 89.6303C61.3308 89.3723 61.5228 89.1773 61.7748 89.0453C62.0268 88.9073 62.3358 88.8383 62.7018 88.8383C63.2238 88.8383 63.6258 88.9943 63.9078 89.3063C64.1958 89.6123 64.3398 90.0413 64.3398 90.5933V91.7813ZM63.3228 90.5393C63.3228 90.3953 63.2988 90.2723 63.2508 90.1703C63.2028 90.0623 63.1308 89.9813 63.0348 89.9273C62.9448 89.8673 62.8308 89.8373 62.6928 89.8373C62.5488 89.8373 62.4258 89.8643 62.3238 89.9183C62.2278 89.9723 62.1528 90.0503 62.0988 90.1523C62.0448 90.2543 62.0178 90.3833 62.0178 90.5393V91.8533C62.0178 91.9733 62.0388 92.0873 62.0808 92.1953C62.1288 92.3033 62.2038 92.3903 62.3058 92.4563C62.4078 92.5223 62.5368 92.5553 62.6928 92.5553C62.8428 92.5553 62.9628 92.5253 63.0528 92.4653C63.1488 92.4053 63.2178 92.3213 63.2598 92.2133C63.3018 92.1053 63.3228 91.9853 63.3228 91.8533V90.5393ZM68.7978 89.7563C68.7978 89.7563 68.7588 89.7473 68.6808 89.7293C68.6088 89.7053 68.4918 89.6933 68.3298 89.6933C68.2338 89.6933 68.1348 89.6993 68.0328 89.7113C67.9308 89.7173 67.8288 89.7323 67.7268 89.7563C67.6308 89.7743 67.5348 89.7983 67.4388 89.8283C67.3428 89.8583 67.2498 89.8973 67.1598 89.9453V93.4463H66.1608V88.9373H67.1598V89.1173C67.3098 89.0153 67.4778 88.9373 67.6638 88.8833C67.8498 88.8293 68.0388 88.8023 68.2308 88.8023C68.3688 88.8023 68.4978 88.8173 68.6178 88.8473C68.7378 88.8713 68.8458 88.9013 68.9418 88.9373L68.7978 89.7563ZM71.5259 92.1053C71.5259 92.1833 71.5379 92.2553 71.5619 92.3213C71.5859 92.3813 71.6189 92.4353 71.6609 92.4833C71.7029 92.5313 71.7569 92.5673 71.8229 92.5913C71.8889 92.6153 71.9609 92.6273 72.0389 92.6273C72.2009 92.6273 72.3839 92.5913 72.5879 92.5193C72.7979 92.4473 72.9959 92.3633 73.1819 92.2673L73.5419 93.1313C73.3379 93.2633 73.0979 93.3683 72.8219 93.4463C72.5519 93.5243 72.2819 93.5633 72.0119 93.5633C71.8019 93.5633 71.6039 93.5363 71.4179 93.4823C71.2379 93.4283 71.0789 93.3473 70.9409 93.2393C70.8089 93.1313 70.7039 92.9933 70.6259 92.8253C70.5539 92.6573 70.5179 92.4593 70.5179 92.2313V90.3863C70.5179 90.0443 70.5899 89.7593 70.7339 89.5313C70.8839 89.3033 71.0849 89.1323 71.3369 89.0183C71.5889 88.9043 71.8709 88.8473 72.1829 88.8473C72.5009 88.8473 72.7769 88.9043 73.0109 89.0183C73.2509 89.1263 73.4369 89.2943 73.5689 89.5223C73.7009 89.7443 73.7669 90.0233 73.7669 90.3593V91.7633L71.5259 91.8803V92.1053ZM72.7679 90.6293C72.7679 90.4913 72.7529 90.3593 72.7229 90.2333C72.6929 90.1013 72.6359 89.9933 72.5519 89.9093C72.4679 89.8253 72.3419 89.7893 72.1739 89.8013C71.9939 89.8073 71.8559 89.8463 71.7599 89.9183C71.6699 89.9843 71.6069 90.0773 71.5709 90.1973C71.5409 90.3113 71.5259 90.4523 71.5259 90.6203V90.9713L72.7679 90.8903V90.6293ZM79.0504 90.6833V89.7203H81.9304V90.6833H79.0504ZM88.3278 92.2583C88.3278 92.3903 88.3548 92.4953 88.4088 92.5733C88.4628 92.6453 88.5378 92.6963 88.6338 92.7263C88.7358 92.7563 88.8558 92.7713 88.9938 92.7713L88.6968 93.5633C88.2408 93.5513 87.8958 93.4373 87.6618 93.2213C87.4338 92.9993 87.3198 92.6783 87.3198 92.2583V87.1463H88.3278V88.9463H89.1918L88.9848 89.8553H88.3278V92.2583ZM92.7448 90.4313C92.7448 90.2573 92.7268 90.1133 92.6908 89.9993C92.6548 89.8853 92.5978 89.7953 92.5198 89.7293C92.4418 89.6633 92.3428 89.6153 92.2228 89.5853C92.1028 89.5553 91.9558 89.5403 91.7818 89.5403L91.8628 88.8563C92.2048 88.8563 92.4928 88.8863 92.7268 88.9463C92.9668 89.0063 93.1588 89.1083 93.3028 89.2523C93.4528 89.3903 93.5608 89.5763 93.6268 89.8103C93.6988 90.0443 93.7348 90.3353 93.7348 90.6833V93.4463C93.6388 93.4583 93.5398 93.4703 93.4378 93.4823C93.3358 93.4943 93.2308 93.5033 93.1228 93.5093C93.0208 93.5213 92.9128 93.5273 92.7988 93.5273C92.6908 93.5333 92.5798 93.5363 92.4658 93.5363C92.3518 93.5423 92.2348 93.5453 92.1148 93.5453C91.8568 93.5453 91.6168 93.5213 91.3948 93.4733C91.1728 93.4253 90.9748 93.3443 90.8008 93.2303C90.6328 93.1103 90.5008 92.9543 90.4048 92.7623C90.3088 92.5703 90.2608 92.3303 90.2608 92.0423V91.1693C90.2608 90.9413 90.2938 90.7433 90.3598 90.5753C90.4258 90.4073 90.5158 90.2693 90.6298 90.1613C90.7438 90.0533 90.8728 89.9723 91.0168 89.9183C91.1668 89.8643 91.3228 89.8373 91.4848 89.8373C91.6348 89.8373 91.7908 89.8613 91.9528 89.9093C92.1148 89.9513 92.2648 90.0173 92.4028 90.1073C92.5468 90.1913 92.6608 90.2993 92.7448 90.4313ZM92.7448 91.1693C92.7148 91.1453 92.6458 91.1093 92.5378 91.0613C92.4358 91.0133 92.3158 90.9683 92.1778 90.9263C92.0398 90.8783 91.9018 90.8543 91.7638 90.8543C91.6978 90.8543 91.6348 90.8633 91.5748 90.8813C91.5148 90.8933 91.4608 90.9173 91.4128 90.9533C91.3708 90.9833 91.3348 91.0283 91.3048 91.0883C91.2808 91.1423 91.2688 91.2113 91.2688 91.2953V91.8803C91.2688 91.9943 91.2778 92.0963 91.2958 92.1863C91.3198 92.2763 91.3618 92.3543 91.4218 92.4203C91.4878 92.4863 91.5808 92.5373 91.7008 92.5733C91.8268 92.6093 91.9918 92.6273 92.1958 92.6273C92.2258 92.6273 92.2618 92.6273 92.3038 92.6273C92.3518 92.6213 92.3998 92.6183 92.4478 92.6183C92.5018 92.6123 92.5498 92.6093 92.5918 92.6093C92.6398 92.6033 92.6758 92.6003 92.6998 92.6003C92.7298 92.5943 92.7448 92.5913 92.7448 92.5913V91.1693ZM98.1423 89.9723C98.0763 89.9363 98.0013 89.9063 97.9173 89.8823C97.8333 89.8523 97.7433 89.8313 97.6473 89.8193C97.5573 89.8013 97.4613 89.7923 97.3593 89.7923C97.3053 89.7923 97.2453 89.7953 97.1793 89.8013C97.1193 89.8073 97.0593 89.8223 96.9993 89.8463C96.9393 89.8643 96.8883 89.8943 96.8463 89.9363C96.8103 89.9723 96.7923 90.0233 96.7923 90.0893C96.7923 90.1793 96.8283 90.2573 96.9003 90.3233C96.9783 90.3893 97.0803 90.4493 97.2063 90.5033C97.3323 90.5573 97.4703 90.6143 97.6203 90.6743C97.7703 90.7283 97.9173 90.7943 98.0613 90.8723C98.2113 90.9503 98.3493 91.0433 98.4753 91.1513C98.6013 91.2593 98.7003 91.3943 98.7723 91.5563C98.8503 91.7123 98.8893 91.9013 98.8893 92.1233C98.8893 92.3633 98.8443 92.5733 98.7543 92.7533C98.6643 92.9333 98.5413 93.0863 98.3853 93.2123C98.2353 93.3323 98.0613 93.4223 97.8633 93.4823C97.6713 93.5483 97.4703 93.5813 97.2603 93.5813C96.9303 93.5813 96.6153 93.5123 96.3153 93.3743C96.0153 93.2363 95.7603 93.0503 95.5503 92.8163L96.1353 92.2043C96.2313 92.2883 96.3333 92.3663 96.4413 92.4383C96.5553 92.5043 96.6723 92.5583 96.7923 92.6003C96.9123 92.6363 97.0323 92.6543 97.1523 92.6543C97.2303 92.6543 97.3083 92.6453 97.3863 92.6273C97.4703 92.6093 97.5453 92.5793 97.6113 92.5373C97.6773 92.4953 97.7313 92.4413 97.7733 92.3753C97.8153 92.3093 97.8363 92.2313 97.8363 92.1413C97.8363 92.0213 97.7973 91.9223 97.7193 91.8443C97.6473 91.7663 97.5483 91.6973 97.4223 91.6373C97.3023 91.5713 97.1673 91.5083 97.0173 91.4483C96.8733 91.3883 96.7263 91.3253 96.5763 91.2593C96.4323 91.1873 96.2973 91.1003 96.1713 90.9983C96.0513 90.8963 95.9523 90.7733 95.8743 90.6293C95.8023 90.4853 95.7663 90.3113 95.7663 90.1073C95.7663 89.8853 95.8083 89.6933 95.8923 89.5313C95.9763 89.3693 96.0903 89.2373 96.2343 89.1353C96.3843 89.0273 96.5493 88.9493 96.7293 88.9013C96.9093 88.8473 97.0923 88.8203 97.2783 88.8203C97.4103 88.8203 97.5453 88.8323 97.6833 88.8563C97.8273 88.8803 97.9653 88.9163 98.0973 88.9643C98.2293 89.0123 98.3463 89.0723 98.4483 89.1443L98.1423 89.9723ZM102.584 90.4493L104.429 93.4463H103.169L101.819 91.1513L101.693 91.2773V93.4463H100.694V87.1463H101.693V89.9993L103.043 88.7573L103.763 89.4503L102.584 90.4493ZM114.445 90.3683C114.445 90.2783 114.427 90.1973 114.391 90.1253C114.355 90.0473 114.304 89.9843 114.238 89.9363C114.172 89.8823 114.097 89.8403 114.013 89.8103C113.929 89.7803 113.839 89.7653 113.743 89.7653C113.689 89.7653 113.62 89.7743 113.536 89.7923C113.458 89.8043 113.371 89.8283 113.275 89.8643C113.185 89.8943 113.092 89.9333 112.996 89.9813C113.008 90.0353 113.014 90.0923 113.014 90.1523C113.02 90.2123 113.023 90.2753 113.023 90.3413V93.4463H112.033V90.3683C112.033 90.2783 112.015 90.1973 111.979 90.1253C111.943 90.0473 111.895 89.9843 111.835 89.9363C111.775 89.8823 111.703 89.8403 111.619 89.8103C111.535 89.7803 111.445 89.7653 111.349 89.7653C111.283 89.7653 111.211 89.7743 111.133 89.7923C111.055 89.8043 110.974 89.8283 110.89 89.8643C110.806 89.8943 110.719 89.9333 110.629 89.9813V93.4463H109.63V88.9373H110.629V89.1533C110.677 89.1233 110.746 89.0873 110.836 89.0453C110.932 88.9973 111.037 88.9553 111.151 88.9193C111.271 88.8833 111.394 88.8653 111.52 88.8653C111.664 88.8653 111.805 88.8803 111.943 88.9103C112.081 88.9343 112.213 88.9793 112.339 89.0453C112.471 89.1053 112.585 89.1893 112.681 89.2973C112.789 89.2253 112.903 89.1563 113.023 89.0903C113.149 89.0243 113.287 88.9703 113.437 88.9283C113.587 88.8863 113.749 88.8653 113.923 88.8653C114.103 88.8653 114.28 88.8893 114.454 88.9373C114.634 88.9793 114.796 89.0573 114.94 89.1713C115.09 89.2793 115.21 89.4293 115.3 89.6213C115.39 89.8133 115.435 90.0533 115.435 90.3413V93.4463H114.445V90.3683ZM119.74 90.4313C119.74 90.2573 119.722 90.1133 119.686 89.9993C119.65 89.8853 119.593 89.7953 119.515 89.7293C119.437 89.6633 119.338 89.6153 119.218 89.5853C119.098 89.5553 118.951 89.5403 118.777 89.5403L118.858 88.8563C119.2 88.8563 119.488 88.8863 119.722 88.9463C119.962 89.0063 120.154 89.1083 120.298 89.2523C120.448 89.3903 120.556 89.5763 120.622 89.8103C120.694 90.0443 120.73 90.3353 120.73 90.6833V93.4463C120.634 93.4583 120.535 93.4703 120.433 93.4823C120.331 93.4943 120.226 93.5033 120.118 93.5093C120.016 93.5213 119.908 93.5273 119.794 93.5273C119.686 93.5333 119.575 93.5363 119.461 93.5363C119.347 93.5423 119.23 93.5453 119.11 93.5453C118.852 93.5453 118.612 93.5213 118.39 93.4733C118.168 93.4253 117.97 93.3443 117.796 93.2303C117.628 93.1103 117.496 92.9543 117.4 92.7623C117.304 92.5703 117.256 92.3303 117.256 92.0423V91.1693C117.256 90.9413 117.289 90.7433 117.355 90.5753C117.421 90.4073 117.511 90.2693 117.625 90.1613C117.739 90.0533 117.868 89.9723 118.012 89.9183C118.162 89.8643 118.318 89.8373 118.48 89.8373C118.63 89.8373 118.786 89.8613 118.948 89.9093C119.11 89.9513 119.26 90.0173 119.398 90.1073C119.542 90.1913 119.656 90.2993 119.74 90.4313ZM119.74 91.1693C119.71 91.1453 119.641 91.1093 119.533 91.0613C119.431 91.0133 119.311 90.9683 119.173 90.9263C119.035 90.8783 118.897 90.8543 118.759 90.8543C118.693 90.8543 118.63 90.8633 118.57 90.8813C118.51 90.8933 118.456 90.9173 118.408 90.9533C118.366 90.9833 118.33 91.0283 118.3 91.0883C118.276 91.1423 118.264 91.2113 118.264 91.2953V91.8803C118.264 91.9943 118.273 92.0963 118.291 92.1863C118.315 92.2763 118.357 92.3543 118.417 92.4203C118.483 92.4863 118.576 92.5373 118.696 92.5733C118.822 92.6093 118.987 92.6273 119.191 92.6273C119.221 92.6273 119.257 92.6273 119.299 92.6273C119.347 92.6213 119.395 92.6183 119.443 92.6183C119.497 92.6123 119.545 92.6093 119.587 92.6093C119.635 92.6033 119.671 92.6003 119.695 92.6003C119.725 92.5943 119.74 92.5913 119.74 92.5913V91.1693ZM124.932 90.3593C124.932 90.2753 124.917 90.1973 124.887 90.1253C124.857 90.0473 124.812 89.9813 124.752 89.9273C124.698 89.8733 124.632 89.8313 124.554 89.8013C124.476 89.7713 124.389 89.7563 124.293 89.7563C124.227 89.7563 124.155 89.7623 124.077 89.7743C124.005 89.7863 123.927 89.8103 123.843 89.8463C123.759 89.8763 123.669 89.9183 123.573 89.9723V93.4553H122.583V88.9373H123.573V89.1443C123.627 89.1143 123.699 89.0783 123.789 89.0363C123.885 88.9883 123.99 88.9463 124.104 88.9103C124.224 88.8743 124.347 88.8563 124.473 88.8563C124.617 88.8563 124.758 88.8713 124.896 88.9013C125.034 88.9313 125.163 88.9793 125.283 89.0453C125.409 89.1113 125.517 89.2013 125.607 89.3153C125.703 89.4233 125.778 89.5613 125.832 89.7293C125.886 89.8973 125.913 90.0983 125.913 90.3323V93.4553H124.932V90.3593ZM130.223 90.4313C130.223 90.2573 130.205 90.1133 130.169 89.9993C130.133 89.8853 130.076 89.7953 129.998 89.7293C129.92 89.6633 129.821 89.6153 129.701 89.5853C129.581 89.5553 129.434 89.5403 129.26 89.5403L129.341 88.8563C129.683 88.8563 129.971 88.8863 130.205 88.9463C130.445 89.0063 130.637 89.1083 130.781 89.2523C130.931 89.3903 131.039 89.5763 131.105 89.8103C131.177 90.0443 131.213 90.3353 131.213 90.6833V93.4463C131.117 93.4583 131.018 93.4703 130.916 93.4823C130.814 93.4943 130.709 93.5033 130.601 93.5093C130.499 93.5213 130.391 93.5273 130.277 93.5273C130.169 93.5333 130.058 93.5363 129.944 93.5363C129.83 93.5423 129.713 93.5453 129.593 93.5453C129.335 93.5453 129.095 93.5213 128.873 93.4733C128.651 93.4253 128.453 93.3443 128.279 93.2303C128.111 93.1103 127.979 92.9543 127.883 92.7623C127.787 92.5703 127.739 92.3303 127.739 92.0423V91.1693C127.739 90.9413 127.772 90.7433 127.838 90.5753C127.904 90.4073 127.994 90.2693 128.108 90.1613C128.222 90.0533 128.351 89.9723 128.495 89.9183C128.645 89.8643 128.801 89.8373 128.963 89.8373C129.113 89.8373 129.269 89.8613 129.431 89.9093C129.593 89.9513 129.743 90.0173 129.881 90.1073C130.025 90.1913 130.139 90.2993 130.223 90.4313ZM130.223 91.1693C130.193 91.1453 130.124 91.1093 130.016 91.0613C129.914 91.0133 129.794 90.9683 129.656 90.9263C129.518 90.8783 129.38 90.8543 129.242 90.8543C129.176 90.8543 129.113 90.8633 129.053 90.8813C128.993 90.8933 128.939 90.9173 128.891 90.9533C128.849 90.9833 128.813 91.0283 128.783 91.0883C128.759 91.1423 128.747 91.2113 128.747 91.2953V91.8803C128.747 91.9943 128.756 92.0963 128.774 92.1863C128.798 92.2763 128.84 92.3543 128.9 92.4203C128.966 92.4863 129.059 92.5373 129.179 92.5733C129.305 92.6093 129.47 92.6273 129.674 92.6273C129.704 92.6273 129.74 92.6273 129.782 92.6273C129.83 92.6213 129.878 92.6183 129.926 92.6183C129.98 92.6123 130.028 92.6093 130.07 92.6093C130.118 92.6033 130.154 92.6003 130.178 92.6003C130.208 92.5943 130.223 92.5913 130.223 92.5913V91.1693ZM136.386 94.0223C136.386 94.3403 136.329 94.5953 136.215 94.7873C136.101 94.9853 135.939 95.1263 135.729 95.2103C135.519 95.3003 135.27 95.3453 134.982 95.3453L134.739 94.5713C134.811 94.5713 134.886 94.5593 134.964 94.5353C135.042 94.5173 135.114 94.4813 135.18 94.4273C135.246 94.3793 135.297 94.3133 135.333 94.2293C135.375 94.1453 135.396 94.0433 135.396 93.9233V93.3383C135.348 93.3743 135.291 93.4073 135.225 93.4373C135.165 93.4613 135.099 93.4823 135.027 93.5003C134.955 93.5183 134.88 93.5303 134.802 93.5363C134.73 93.5483 134.658 93.5543 134.586 93.5543C134.088 93.5543 133.707 93.4103 133.443 93.1223C133.179 92.8283 133.047 92.4053 133.047 91.8533V90.3323C133.047 90.0263 133.101 89.7623 133.209 89.5403C133.323 89.3183 133.485 89.1473 133.695 89.0273C133.911 88.9073 134.172 88.8473 134.478 88.8473C134.592 88.8473 134.7 88.8593 134.802 88.8833C134.91 88.9013 135.012 88.9313 135.108 88.9733C135.21 89.0153 135.306 89.0693 135.396 89.1353V88.9373H136.386V94.0223ZM135.396 89.9633C135.396 89.9633 135.375 89.9543 135.333 89.9363C135.291 89.9123 135.234 89.8883 135.162 89.8643C135.096 89.8343 135.021 89.8073 134.937 89.7833C134.859 89.7593 134.784 89.7473 134.712 89.7473C134.628 89.7473 134.544 89.7593 134.46 89.7833C134.382 89.8013 134.31 89.8343 134.244 89.8823C134.184 89.9303 134.136 89.9993 134.1 90.0893C134.064 90.1733 134.046 90.2783 134.046 90.4043V92.0063C134.046 92.1203 134.067 92.2283 134.109 92.3303C134.157 92.4323 134.226 92.5133 134.316 92.5733C134.412 92.6333 134.529 92.6603 134.667 92.6543C134.793 92.6483 134.901 92.6303 134.991 92.6003C135.081 92.5703 135.156 92.5343 135.216 92.4923C135.276 92.4443 135.321 92.3933 135.351 92.3393C135.381 92.2853 135.396 92.2343 135.396 92.1863V89.9633ZM139.231 92.1053C139.231 92.1833 139.243 92.2553 139.267 92.3213C139.291 92.3813 139.324 92.4353 139.366 92.4833C139.408 92.5313 139.462 92.5673 139.528 92.5913C139.594 92.6153 139.666 92.6273 139.744 92.6273C139.906 92.6273 140.089 92.5913 140.293 92.5193C140.503 92.4473 140.701 92.3633 140.887 92.2673L141.247 93.1313C141.043 93.2633 140.803 93.3683 140.527 93.4463C140.257 93.5243 139.987 93.5633 139.717 93.5633C139.507 93.5633 139.309 93.5363 139.123 93.4823C138.943 93.4283 138.784 93.3473 138.646 93.2393C138.514 93.1313 138.409 92.9933 138.331 92.8253C138.259 92.6573 138.223 92.4593 138.223 92.2313V90.3863C138.223 90.0443 138.295 89.7593 138.439 89.5313C138.589 89.3033 138.79 89.1323 139.042 89.0183C139.294 88.9043 139.576 88.8473 139.888 88.8473C140.206 88.8473 140.482 88.9043 140.716 89.0183C140.956 89.1263 141.142 89.2943 141.274 89.5223C141.406 89.7443 141.472 90.0233 141.472 90.3593V91.7633L139.231 91.8803V92.1053ZM140.473 90.6293C140.473 90.4913 140.458 90.3593 140.428 90.2333C140.398 90.1013 140.341 89.9933 140.257 89.9093C140.173 89.8253 140.047 89.7893 139.879 89.8013C139.699 89.8073 139.561 89.8463 139.465 89.9183C139.375 89.9843 139.312 90.0773 139.276 90.1973C139.246 90.3113 139.231 90.4523 139.231 90.6203V90.9713L140.473 90.8903V90.6293ZM148.109 90.3683C148.109 90.2783 148.091 90.1973 148.055 90.1253C148.019 90.0473 147.968 89.9843 147.902 89.9363C147.836 89.8823 147.761 89.8403 147.677 89.8103C147.593 89.7803 147.503 89.7653 147.407 89.7653C147.353 89.7653 147.284 89.7743 147.2 89.7923C147.122 89.8043 147.035 89.8283 146.939 89.8643C146.849 89.8943 146.756 89.9333 146.66 89.9813C146.672 90.0353 146.678 90.0923 146.678 90.1523C146.684 90.2123 146.687 90.2753 146.687 90.3413V93.4463H145.697V90.3683C145.697 90.2783 145.679 90.1973 145.643 90.1253C145.607 90.0473 145.559 89.9843 145.499 89.9363C145.439 89.8823 145.367 89.8403 145.283 89.8103C145.199 89.7803 145.109 89.7653 145.013 89.7653C144.947 89.7653 144.875 89.7743 144.797 89.7923C144.719 89.8043 144.638 89.8283 144.554 89.8643C144.47 89.8943 144.383 89.9333 144.293 89.9813V93.4463H143.294V88.9373H144.293V89.1533C144.341 89.1233 144.41 89.0873 144.5 89.0453C144.596 88.9973 144.701 88.9553 144.815 88.9193C144.935 88.8833 145.058 88.8653 145.184 88.8653C145.328 88.8653 145.469 88.8803 145.607 88.9103C145.745 88.9343 145.877 88.9793 146.003 89.0453C146.135 89.1053 146.249 89.1893 146.345 89.2973C146.453 89.2253 146.567 89.1563 146.687 89.0903C146.813 89.0243 146.951 88.9703 147.101 88.9283C147.251 88.8863 147.413 88.8653 147.587 88.8653C147.767 88.8653 147.944 88.8893 148.118 88.9373C148.298 88.9793 148.46 89.0573 148.604 89.1713C148.754 89.2793 148.874 89.4293 148.964 89.6213C149.054 89.8133 149.099 90.0533 149.099 90.3413V93.4463H148.109V90.3683ZM151.938 92.1053C151.938 92.1833 151.95 92.2553 151.974 92.3213C151.998 92.3813 152.031 92.4353 152.073 92.4833C152.115 92.5313 152.169 92.5673 152.235 92.5913C152.301 92.6153 152.373 92.6273 152.451 92.6273C152.613 92.6273 152.796 92.5913 153 92.5193C153.21 92.4473 153.408 92.3633 153.594 92.2673L153.954 93.1313C153.75 93.2633 153.51 93.3683 153.234 93.4463C152.964 93.5243 152.694 93.5633 152.424 93.5633C152.214 93.5633 152.016 93.5363 151.83 93.4823C151.65 93.4283 151.491 93.3473 151.353 93.2393C151.221 93.1313 151.116 92.9933 151.038 92.8253C150.966 92.6573 150.93 92.4593 150.93 92.2313V90.3863C150.93 90.0443 151.002 89.7593 151.146 89.5313C151.296 89.3033 151.497 89.1323 151.749 89.0183C152.001 88.9043 152.283 88.8473 152.595 88.8473C152.913 88.8473 153.189 88.9043 153.423 89.0183C153.663 89.1263 153.849 89.2943 153.981 89.5223C154.113 89.7443 154.179 90.0233 154.179 90.3593V91.7633L151.938 91.8803V92.1053ZM153.18 90.6293C153.18 90.4913 153.165 90.3593 153.135 90.2333C153.105 90.1013 153.048 89.9933 152.964 89.9093C152.88 89.8253 152.754 89.7893 152.586 89.8013C152.406 89.8073 152.268 89.8463 152.172 89.9183C152.082 89.9843 152.019 90.0773 151.983 90.1973C151.953 90.3113 151.938 90.4523 151.938 90.6203V90.9713L153.18 90.8903V90.6293ZM158.35 90.3593C158.35 90.2753 158.335 90.1973 158.305 90.1253C158.275 90.0473 158.23 89.9813 158.17 89.9273C158.116 89.8733 158.05 89.8313 157.972 89.8013C157.894 89.7713 157.807 89.7563 157.711 89.7563C157.645 89.7563 157.573 89.7623 157.495 89.7743C157.423 89.7863 157.345 89.8103 157.261 89.8463C157.177 89.8763 157.087 89.9183 156.991 89.9723V93.4553H156.001V88.9373H156.991V89.1443C157.045 89.1143 157.117 89.0783 157.207 89.0363C157.303 88.9883 157.408 88.9463 157.522 88.9103C157.642 88.8743 157.765 88.8563 157.891 88.8563C158.035 88.8563 158.176 88.8713 158.314 88.9013C158.452 88.9313 158.581 88.9793 158.701 89.0453C158.827 89.1113 158.935 89.2013 159.025 89.3153C159.121 89.4233 159.196 89.5613 159.25 89.7293C159.304 89.8973 159.331 90.0983 159.331 90.3323V93.4553H158.35V90.3593ZM162.194 92.2583C162.194 92.3903 162.221 92.4953 162.275 92.5733C162.329 92.6453 162.404 92.6963 162.5 92.7263C162.602 92.7563 162.722 92.7713 162.86 92.7713L162.563 93.5633C162.107 93.5513 161.762 93.4373 161.528 93.2213C161.3 92.9993 161.186 92.6783 161.186 92.2583V87.1463H162.194V88.9463H163.058L162.851 89.8553H162.194V92.2583ZM170.839 89.9723C170.773 89.9363 170.698 89.9063 170.614 89.8823C170.53 89.8523 170.44 89.8313 170.344 89.8193C170.254 89.8013 170.158 89.7923 170.056 89.7923C170.002 89.7923 169.942 89.7953 169.876 89.8013C169.816 89.8073 169.756 89.8223 169.696 89.8463C169.636 89.8643 169.585 89.8943 169.543 89.9363C169.507 89.9723 169.489 90.0233 169.489 90.0893C169.489 90.1793 169.525 90.2573 169.597 90.3233C169.675 90.3893 169.777 90.4493 169.903 90.5033C170.029 90.5573 170.167 90.6143 170.317 90.6743C170.467 90.7283 170.614 90.7943 170.758 90.8723C170.908 90.9503 171.046 91.0433 171.172 91.1513C171.298 91.2593 171.397 91.3943 171.469 91.5563C171.547 91.7123 171.586 91.9013 171.586 92.1233C171.586 92.3633 171.541 92.5733 171.451 92.7533C171.361 92.9333 171.238 93.0863 171.082 93.2123C170.932 93.3323 170.758 93.4223 170.56 93.4823C170.368 93.5483 170.167 93.5813 169.957 93.5813C169.627 93.5813 169.312 93.5123 169.012 93.3743C168.712 93.2363 168.457 93.0503 168.247 92.8163L168.832 92.2043C168.928 92.2883 169.03 92.3663 169.138 92.4383C169.252 92.5043 169.369 92.5583 169.489 92.6003C169.609 92.6363 169.729 92.6543 169.849 92.6543C169.927 92.6543 170.005 92.6453 170.083 92.6273C170.167 92.6093 170.242 92.5793 170.308 92.5373C170.374 92.4953 170.428 92.4413 170.47 92.3753C170.512 92.3093 170.533 92.2313 170.533 92.1413C170.533 92.0213 170.494 91.9223 170.416 91.8443C170.344 91.7663 170.245 91.6973 170.119 91.6373C169.999 91.5713 169.864 91.5083 169.714 91.4483C169.57 91.3883 169.423 91.3253 169.273 91.2593C169.129 91.1873 168.994 91.1003 168.868 90.9983C168.748 90.8963 168.649 90.7733 168.571 90.6293C168.499 90.4853 168.463 90.3113 168.463 90.1073C168.463 89.8853 168.505 89.6933 168.589 89.5313C168.673 89.3693 168.787 89.2373 168.931 89.1353C169.081 89.0273 169.246 88.9493 169.426 88.9013C169.606 88.8473 169.789 88.8203 169.975 88.8203C170.107 88.8203 170.242 88.8323 170.38 88.8563C170.524 88.8803 170.662 88.9163 170.794 88.9643C170.926 89.0123 171.043 89.0723 171.145 89.1443L170.839 89.9723ZM177.161 89.5403C176.987 89.5763 176.87 89.6543 176.81 89.7743C176.756 89.8883 176.729 90.0233 176.729 90.1793V93.9773C176.729 94.2653 176.675 94.5113 176.567 94.7153C176.465 94.9253 176.312 95.0873 176.108 95.2013C175.904 95.3153 175.658 95.3723 175.37 95.3723L175.109 94.5713C175.199 94.5713 175.283 94.5503 175.361 94.5083C175.439 94.4723 175.505 94.4213 175.559 94.3553C175.619 94.2893 175.664 94.2143 175.694 94.1303C175.724 94.0523 175.739 93.9683 175.739 93.8783V93.1943C175.703 93.2363 175.637 93.2813 175.541 93.3293C175.445 93.3773 175.334 93.4163 175.208 93.4463C175.088 93.4823 174.965 93.5003 174.839 93.5003C174.659 93.5003 174.482 93.4763 174.308 93.4283C174.14 93.3803 173.984 93.3023 173.84 93.1943C173.702 93.0803 173.591 92.9273 173.507 92.7353C173.429 92.5433 173.39 92.3033 173.39 92.0153V88.9193H174.398V91.9883C174.398 92.0723 174.413 92.1533 174.443 92.2313C174.473 92.3033 174.515 92.3663 174.569 92.4203C174.623 92.4743 174.689 92.5163 174.767 92.5463C174.845 92.5763 174.929 92.5913 175.019 92.5913C175.121 92.5913 175.214 92.5733 175.298 92.5373C175.388 92.4953 175.466 92.4413 175.532 92.3753C175.598 92.3093 175.649 92.2313 175.685 92.1413C175.721 92.0513 175.739 91.9553 175.739 91.8533V89.9093C175.739 89.7413 175.775 89.5763 175.847 89.4143C175.919 89.2463 176.036 89.1083 176.198 89.0003C176.36 88.8923 176.576 88.8383 176.846 88.8383L177.161 89.5403ZM181.261 89.9723C181.195 89.9363 181.12 89.9063 181.036 89.8823C180.952 89.8523 180.862 89.8313 180.766 89.8193C180.676 89.8013 180.58 89.7923 180.478 89.7923C180.424 89.7923 180.364 89.7953 180.298 89.8013C180.238 89.8073 180.178 89.8223 180.118 89.8463C180.058 89.8643 180.007 89.8943 179.965 89.9363C179.929 89.9723 179.911 90.0233 179.911 90.0893C179.911 90.1793 179.947 90.2573 180.019 90.3233C180.097 90.3893 180.199 90.4493 180.325 90.5033C180.451 90.5573 180.589 90.6143 180.739 90.6743C180.889 90.7283 181.036 90.7943 181.18 90.8723C181.33 90.9503 181.468 91.0433 181.594 91.1513C181.72 91.2593 181.819 91.3943 181.891 91.5563C181.969 91.7123 182.008 91.9013 182.008 92.1233C182.008 92.3633 181.963 92.5733 181.873 92.7533C181.783 92.9333 181.66 93.0863 181.504 93.2123C181.354 93.3323 181.18 93.4223 180.982 93.4823C180.79 93.5483 180.589 93.5813 180.379 93.5813C180.049 93.5813 179.734 93.5123 179.434 93.3743C179.134 93.2363 178.879 93.0503 178.669 92.8163L179.254 92.2043C179.35 92.2883 179.452 92.3663 179.56 92.4383C179.674 92.5043 179.791 92.5583 179.911 92.6003C180.031 92.6363 180.151 92.6543 180.271 92.6543C180.349 92.6543 180.427 92.6453 180.505 92.6273C180.589 92.6093 180.664 92.5793 180.73 92.5373C180.796 92.4953 180.85 92.4413 180.892 92.3753C180.934 92.3093 180.955 92.2313 180.955 92.1413C180.955 92.0213 180.916 91.9223 180.838 91.8443C180.766 91.7663 180.667 91.6973 180.541 91.6373C180.421 91.5713 180.286 91.5083 180.136 91.4483C179.992 91.3883 179.845 91.3253 179.695 91.2593C179.551 91.1873 179.416 91.1003 179.29 90.9983C179.17 90.8963 179.071 90.7733 178.993 90.6293C178.921 90.4853 178.885 90.3113 178.885 90.1073C178.885 89.8853 178.927 89.6933 179.011 89.5313C179.095 89.3693 179.209 89.2373 179.353 89.1353C179.503 89.0273 179.668 88.9493 179.848 88.9013C180.028 88.8473 180.211 88.8203 180.397 88.8203C180.529 88.8203 180.664 88.8323 180.802 88.8563C180.946 88.8803 181.084 88.9163 181.216 88.9643C181.348 89.0123 181.465 89.0723 181.567 89.1443L181.261 89.9723ZM184.829 92.2583C184.829 92.3903 184.856 92.4953 184.91 92.5733C184.964 92.6453 185.039 92.6963 185.135 92.7263C185.237 92.7563 185.357 92.7713 185.495 92.7713L185.198 93.5633C184.742 93.5513 184.397 93.4373 184.163 93.2213C183.935 92.9993 183.821 92.6783 183.821 92.2583V87.1463H184.829V88.9463H185.693L185.486 89.8553H184.829V92.2583ZM188.254 92.1053C188.254 92.1833 188.266 92.2553 188.29 92.3213C188.314 92.3813 188.347 92.4353 188.389 92.4833C188.431 92.5313 188.485 92.5673 188.551 92.5913C188.617 92.6153 188.689 92.6273 188.767 92.6273C188.929 92.6273 189.112 92.5913 189.316 92.5193C189.526 92.4473 189.724 92.3633 189.91 92.2673L190.27 93.1313C190.066 93.2633 189.826 93.3683 189.55 93.4463C189.28 93.5243 189.01 93.5633 188.74 93.5633C188.53 93.5633 188.332 93.5363 188.146 93.4823C187.966 93.4283 187.807 93.3473 187.669 93.2393C187.537 93.1313 187.432 92.9933 187.354 92.8253C187.282 92.6573 187.246 92.4593 187.246 92.2313V90.3863C187.246 90.0443 187.318 89.7593 187.462 89.5313C187.612 89.3033 187.813 89.1323 188.065 89.0183C188.317 88.9043 188.599 88.8473 188.911 88.8473C189.229 88.8473 189.505 88.9043 189.739 89.0183C189.979 89.1263 190.165 89.2943 190.297 89.5223C190.429 89.7443 190.495 90.0233 190.495 90.3593V91.7633L188.254 91.8803V92.1053ZM189.496 90.6293C189.496 90.4913 189.481 90.3593 189.451 90.2333C189.421 90.1013 189.364 89.9933 189.28 89.9093C189.196 89.8253 189.07 89.7893 188.902 89.8013C188.722 89.8073 188.584 89.8463 188.488 89.9183C188.398 89.9843 188.335 90.0773 188.299 90.1973C188.269 90.3113 188.254 90.4523 188.254 90.6203V90.9713L189.496 90.8903V90.6293ZM197.133 90.3683C197.133 90.2783 197.115 90.1973 197.079 90.1253C197.043 90.0473 196.992 89.9843 196.926 89.9363C196.86 89.8823 196.785 89.8403 196.701 89.8103C196.617 89.7803 196.527 89.7653 196.431 89.7653C196.377 89.7653 196.308 89.7743 196.224 89.7923C196.146 89.8043 196.059 89.8283 195.963 89.8643C195.873 89.8943 195.78 89.9333 195.684 89.9813C195.696 90.0353 195.702 90.0923 195.702 90.1523C195.708 90.2123 195.711 90.2753 195.711 90.3413V93.4463H194.721V90.3683C194.721 90.2783 194.703 90.1973 194.667 90.1253C194.631 90.0473 194.583 89.9843 194.523 89.9363C194.463 89.8823 194.391 89.8403 194.307 89.8103C194.223 89.7803 194.133 89.7653 194.037 89.7653C193.971 89.7653 193.899 89.7743 193.821 89.7923C193.743 89.8043 193.662 89.8283 193.578 89.8643C193.494 89.8943 193.407 89.9333 193.317 89.9813V93.4463H192.318V88.9373H193.317V89.1533C193.365 89.1233 193.434 89.0873 193.524 89.0453C193.62 88.9973 193.725 88.9553 193.839 88.9193C193.959 88.8833 194.082 88.8653 194.208 88.8653C194.352 88.8653 194.493 88.8803 194.631 88.9103C194.769 88.9343 194.901 88.9793 195.027 89.0453C195.159 89.1053 195.273 89.1893 195.369 89.2973C195.477 89.2253 195.591 89.1563 195.711 89.0903C195.837 89.0243 195.975 88.9703 196.125 88.9283C196.275 88.8863 196.437 88.8653 196.611 88.8653C196.791 88.8653 196.968 88.8893 197.142 88.9373C197.322 88.9793 197.484 89.0573 197.628 89.1713C197.778 89.2793 197.898 89.4293 197.988 89.6213C198.078 89.8133 198.123 90.0533 198.123 90.3413V93.4463H197.133V90.3683Z" fill="#32217F"/>
<defs>
<linearGradient id="paint0_linear_194_269" x1="120.097" y1="23.0861" x2="130.144" y2="61.2133" gradientUnits="userSpaceOnUse">
<stop stop-color="#4D47A7"/>
<stop offset="1" stop-color="#4D47A7"/>
</linearGradient>
<linearGradient id="paint1_linear_194_269" x1="143.373" y1="15.2237" x2="103.103" y2="64.3599" gradientUnits="userSpaceOnUse">
<stop stop-color="#CFCCFF"/>
<stop offset="1" stop-color="#2617FC"/>
</linearGradient>
<linearGradient id="paint2_linear_194_269" x1="125.279" y1="36.6002" x2="130.299" y2="61.1628" gradientUnits="userSpaceOnUse">
<stop stop-color="#4D47A7"/>
<stop offset="1" stop-color="#D9B4FA"/>
</linearGradient>
</defs>
</svg>
