<svg width="50" height="50" viewBox="0 0 50 50" fill="none" xmlns="http://www.w3.org/2000/svg">
<path fill-rule="evenodd" clip-rule="evenodd" d="M18.492 12.2556C14.7029 12.2556 12.2545 14.8526 12.2545 18.8707V31.1293C12.2545 35.1489 14.7029 37.7444 18.492 37.7444H31.493C35.2911 37.7444 37.7455 35.1489 37.7455 31.1293V18.8707C37.7455 14.8526 35.2911 12.2556 31.493 12.2556H18.492ZM31.493 40H18.492C13.4118 40 10 36.4346 10 31.1293V18.8707C10 13.5654 13.4118 10 18.492 10H31.493C36.5807 10 40 13.5654 40 18.8707V31.1293C40 36.4346 36.5807 40 31.493 40Z" fill="#D8D8D8"/>
<path fill-rule="evenodd" clip-rule="evenodd" d="M14.9314 32.8277C14.6518 32.8277 14.3737 32.7254 14.1558 32.5179C13.7034 32.0908 13.6854 31.375 14.1137 30.9254L16.4103 28.4998C17.6263 27.2081 19.6779 27.145 20.975 28.363L22.4148 29.8247C22.8161 30.2307 23.4684 30.2382 23.8712 29.8412C24.023 29.6623 27.2966 25.6848 27.2966 25.6848C27.9188 24.9299 28.7966 24.4638 29.772 24.3675C30.749 24.2818 31.6974 24.566 32.4534 25.1871C32.518 25.2397 32.5767 25.2908 35.8773 28.6818C36.3116 29.1269 36.3041 29.8412 35.8577 30.2758C35.4128 30.7134 34.6974 30.6998 34.263 30.2547C34.263 30.2547 31.1834 27.0923 30.9639 26.8788C30.731 26.6878 30.3567 26.5765 29.9885 26.6126C29.6142 26.6502 29.2776 26.8292 29.0386 27.1194C25.5456 31.3585 25.5035 31.3991 25.4464 31.4547C24.1568 32.7209 22.0752 32.6999 20.8081 31.4066C20.8081 31.4066 19.4103 29.9871 19.3863 29.9585C19.0391 29.6367 18.4198 29.6577 18.0486 30.0502L15.749 32.4758C15.5266 32.7104 15.229 32.8277 14.9314 32.8277Z" fill="#D8D8D8"/>
<path fill-rule="evenodd" clip-rule="evenodd" d="M19.8555 19.2164C19.0243 19.2164 18.348 19.8931 18.348 20.7262C18.348 21.5592 19.0243 22.2374 19.857 22.2374C20.6897 22.2374 21.3675 21.5592 21.3675 20.7262C21.3675 19.8946 20.6897 19.2179 19.8555 19.2164ZM19.857 24.4931C17.7814 24.4931 16.0935 22.8029 16.0935 20.7262C16.0935 18.6495 17.7814 16.9608 19.857 16.9608C21.9342 16.9623 23.622 18.6525 23.622 20.7262C23.622 22.8029 21.9327 24.4931 19.857 24.4931Z" fill="#D8D8D8"/>
</svg>
