<svg width="274" height="98" viewBox="0 0 274 98" fill="none" xmlns="http://www.w3.org/2000/svg">
<path d="M98.8089 12.943C119.779 11.8445 135.257 16.1883 137.753 25.3253C141.548 39.1056 114.287 58.6776 76.8403 68.9629C39.3938 79.2482 6.04145 76.4023 2.24687 62.8716C-0.249564 53.7846 10.7847 42.2011 29.2583 32.4151" stroke="white" stroke-width="2" stroke-miterlimit="10"/>
<path d="M105.899 21.7304C114.287 22.8787 118.98 25.6747 120.278 30.2682C123.074 40.2539 102.853 54.9329 75.3422 62.572C47.8315 70.2111 22.6175 68.1141 19.9713 57.8787C18.6731 53.1355 21.1696 48.3424 28.3593 42.9001" stroke="white" stroke-width="2" stroke-miterlimit="10"/>
<path d="M109.843 56.3809C106.877 64.5731 101.442 71.643 94.2876 76.6153C87.1333 81.5876 78.6122 84.2172 69.8999 84.1412C60.2614 84.1729 50.8973 80.9341 43.3379 74.9544" stroke="white" stroke-width="2" stroke-miterlimit="10"/>
<path d="M35.5492 66.4665C30.6236 59.5977 27.9858 51.3524 28.0099 42.9002C28.1416 31.8517 32.6538 21.3073 40.5553 13.5837C48.4568 5.86015 59.1011 1.58912 70.1497 1.709C81.1898 1.60244 91.8213 5.87937 99.7119 13.6015C107.603 21.3237 112.108 31.8604 112.24 42.9002C112.24 43.3994 112.24 43.9986 112.24 44.5478" stroke="white" stroke-width="2" stroke-miterlimit="10"/>
<path d="M158.976 25.6761C158.571 25.5054 158.091 25.3774 157.536 25.2921C156.981 25.1854 156.459 25.1321 155.968 25.1321C155.264 25.1321 154.667 25.2281 154.176 25.4201C153.707 25.6121 153.344 25.9107 153.088 26.3161C152.832 26.7214 152.704 27.2547 152.704 27.9161V38.4121C152.704 39.0734 152.821 39.6067 153.056 40.0121C153.291 40.3961 153.621 40.6841 154.048 40.8761C154.496 41.0467 155.04 41.1321 155.68 41.1321C156.341 41.1321 156.992 41.0681 157.632 40.9401C158.272 40.8121 158.827 40.6734 159.296 40.5241C159.787 40.3747 160.085 40.2894 160.192 40.2681L160.704 43.6281C159.787 43.9694 158.891 44.2361 158.016 44.4281C157.141 44.6414 156.299 44.7481 155.488 44.7481C154.165 44.7481 153.024 44.5134 152.064 44.0441C151.125 43.5534 150.4 42.8387 149.888 41.9001C149.397 40.9614 149.152 39.8201 149.152 38.4761V28.0121C149.152 26.6041 149.419 25.4201 149.952 24.4601C150.507 23.5001 151.243 22.7854 152.16 22.3161C153.099 21.8254 154.155 21.5801 155.328 21.5801C156.096 21.5801 156.864 21.6761 157.632 21.8681C158.4 22.0387 159.168 22.3161 159.936 22.7001L158.976 25.6761ZM167.952 28.1081C167.952 25.9321 168.56 24.2787 169.776 23.1481C170.992 21.9961 172.656 21.4201 174.768 21.4201C176.88 21.4201 178.523 22.0174 179.696 23.2121C180.869 24.4067 181.456 26.0494 181.456 28.1401V38.4121C181.456 39.7134 181.179 40.8441 180.624 41.8041C180.069 42.7427 179.28 43.4681 178.256 43.9801C177.253 44.4707 176.08 44.7161 174.736 44.7161C173.477 44.7161 172.336 44.4814 171.312 44.0121C170.288 43.5427 169.467 42.8387 168.848 41.9001C168.251 40.9614 167.952 39.7987 167.952 38.4121V28.1081ZM171.504 37.7721C171.504 38.4547 171.621 39.0521 171.856 39.5641C172.112 40.0547 172.475 40.4387 172.944 40.7161C173.435 40.9721 174.021 41.1001 174.704 41.1001C175.387 41.1001 175.963 40.9614 176.432 40.6841C176.901 40.4067 177.264 40.0121 177.52 39.5001C177.776 38.9881 177.904 38.4014 177.904 37.7401V29.1321C177.904 28.2147 177.808 27.4681 177.616 26.8921C177.424 26.3161 177.093 25.8894 176.624 25.6121C176.155 25.3134 175.515 25.1641 174.704 25.1641C173.957 25.1641 173.349 25.3027 172.88 25.5801C172.411 25.8574 172.059 26.2947 171.824 26.8921C171.611 27.4681 171.504 28.2147 171.504 29.1321V37.7721ZM195.919 21.9641C196.751 21.9641 197.583 22.0814 198.415 22.3161C199.247 22.5507 200.005 22.9561 200.687 23.5321C201.37 24.1081 201.914 24.9187 202.319 25.9641C202.725 26.9881 202.927 28.2894 202.927 29.8681C202.927 31.1267 202.81 32.2147 202.575 33.1321C202.362 34.0494 202.053 34.8174 201.647 35.4361C201.263 36.0547 200.815 36.5454 200.303 36.9081L203.055 44.3641H199.279L197.071 38.0601C196.943 38.0814 196.815 38.0921 196.687 38.0921C196.559 38.0921 196.431 38.0921 196.303 38.0921C196.175 38.0921 196.047 38.0921 195.919 38.0921H192.495V44.3641H188.943V21.9641H195.919ZM194.607 34.7321C195.439 34.7321 196.154 34.6787 196.751 34.5721C197.349 34.4654 197.839 34.2521 198.223 33.9321C198.607 33.5907 198.885 33.1001 199.055 32.4601C199.247 31.8201 199.343 30.9561 199.343 29.8681C199.343 28.8654 199.247 28.0761 199.055 27.5001C198.885 26.9027 198.607 26.4654 198.223 26.1881C197.839 25.8894 197.349 25.6974 196.751 25.6121C196.154 25.5267 195.439 25.4841 194.607 25.4841H192.495V34.7321H194.607ZM210.337 44.3641V21.9641H221.057V25.4841H213.889V31.1161H218.273L217.281 34.4761H213.889V41.1321H220.993V44.3641H210.337ZM156.288 56.9641C157.12 56.9641 157.952 57.0814 158.784 57.3161C159.616 57.5507 160.373 57.9561 161.056 58.5321C161.739 59.1081 162.283 59.9187 162.688 60.9641C163.093 61.9881 163.296 63.2894 163.296 64.8681C163.296 66.6174 163.093 68.0361 162.688 69.1241C162.304 70.1907 161.771 71.0121 161.088 71.5881C160.405 72.1641 159.648 72.5587 158.816 72.7721C158.005 72.9854 157.163 73.0921 156.288 73.0921H152.864V79.3641H149.312V56.9641H156.288ZM152.864 69.7321H154.976C155.808 69.7321 156.523 69.6787 157.12 69.5721C157.717 69.4654 158.208 69.2521 158.592 68.9321C158.976 68.5907 159.253 68.1001 159.424 67.4601C159.616 66.8201 159.712 65.9561 159.712 64.8681C159.712 63.8654 159.616 63.0761 159.424 62.5001C159.253 61.9027 158.976 61.4654 158.592 61.1881C158.208 60.8894 157.717 60.6974 157.12 60.6121C156.523 60.5267 155.808 60.4841 154.976 60.4841H152.864V69.7321ZM177.65 56.9641C178.482 56.9641 179.314 57.0814 180.146 57.3161C180.978 57.5507 181.736 57.9561 182.418 58.5321C183.101 59.1081 183.645 59.9187 184.05 60.9641C184.456 61.9881 184.658 63.2894 184.658 64.8681C184.658 66.1267 184.541 67.2147 184.306 68.1321C184.093 69.0494 183.784 69.8174 183.378 70.4361C182.994 71.0547 182.546 71.5454 182.035 71.9081L184.786 79.3641H181.01L178.802 73.0601C178.674 73.0814 178.546 73.0921 178.418 73.0921C178.29 73.0921 178.162 73.0921 178.035 73.0921C177.906 73.0921 177.778 73.0921 177.65 73.0921H174.226V79.3641H170.674V56.9641H177.65ZM176.338 69.7321C177.17 69.7321 177.885 69.6787 178.483 69.5721C179.08 69.4654 179.571 69.2521 179.955 68.9321C180.338 68.5907 180.616 68.1001 180.786 67.4601C180.979 66.8201 181.075 65.9561 181.075 64.8681C181.075 63.8654 180.979 63.0761 180.786 62.5001C180.616 61.9027 180.338 61.4654 179.955 61.1881C179.571 60.8894 179.08 60.6974 178.483 60.6121C177.885 60.5267 177.17 60.4841 176.338 60.4841H174.226V69.7321H176.338ZM191.908 63.1081C191.908 60.9321 192.516 59.2787 193.732 58.1481C194.948 56.9961 196.612 56.4201 198.724 56.4201C200.836 56.4201 202.479 57.0174 203.652 58.2121C204.826 59.4067 205.412 61.0494 205.412 63.1401V73.4121C205.412 74.7134 205.135 75.8441 204.58 76.8041C204.026 77.7427 203.236 78.4681 202.212 78.9801C201.21 79.4707 200.036 79.7161 198.692 79.7161C197.434 79.7161 196.292 79.4814 195.268 79.0121C194.244 78.5427 193.423 77.8387 192.804 76.9001C192.207 75.9614 191.908 74.7987 191.908 73.4121V63.1081ZM195.46 72.7721C195.46 73.4547 195.578 74.0521 195.812 74.5641C196.068 75.0547 196.431 75.4387 196.9 75.7161C197.391 75.9721 197.978 76.1001 198.66 76.1001C199.343 76.1001 199.919 75.9614 200.388 75.6841C200.858 75.4067 201.22 75.0121 201.476 74.5001C201.732 73.9881 201.86 73.4014 201.86 72.7401V64.1321C201.86 63.2147 201.764 62.4681 201.572 61.8921C201.38 61.3161 201.05 60.8894 200.58 60.6121C200.111 60.3134 199.471 60.1641 198.66 60.1641C197.914 60.1641 197.306 60.3027 196.836 60.5801C196.367 60.8574 196.015 61.2947 195.78 61.8921C195.567 62.4681 195.46 63.2147 195.46 64.1321V72.7721ZM216.893 74.8841C216.893 75.8014 216.755 76.6121 216.477 77.3161C216.221 77.9987 215.848 78.5747 215.357 79.0441C214.867 79.5134 214.269 79.8654 213.565 80.1001C212.861 80.3561 212.072 80.5054 211.197 80.5481L210.045 77.5401C210.813 77.5401 211.443 77.4227 211.933 77.1881C212.445 76.9321 212.829 76.5694 213.085 76.1001C213.341 75.6307 213.469 75.0441 213.469 74.3401V60.3881L211.485 60.3241V56.9641H216.893V74.8841ZM224.418 79.3641V56.9641H235.138V60.4841H227.97V66.1161H232.354L231.362 69.4761H227.97V76.1321H235.074V79.3641H224.418ZM252.132 60.6761C251.727 60.5054 251.247 60.3774 250.692 60.2921C250.138 60.1854 249.615 60.1321 249.124 60.1321C248.42 60.1321 247.823 60.2281 247.332 60.4201C246.863 60.6121 246.5 60.9107 246.244 61.3161C245.988 61.7214 245.86 62.2547 245.86 62.9161V73.4121C245.86 74.0734 245.978 74.6067 246.212 75.0121C246.447 75.3961 246.778 75.6841 247.204 75.8761C247.652 76.0467 248.196 76.1321 248.836 76.1321C249.498 76.1321 250.148 76.0681 250.788 75.9401C251.428 75.8121 251.983 75.6734 252.452 75.5241C252.943 75.3747 253.242 75.2894 253.348 75.2681L253.86 78.6281C252.943 78.9694 252.047 79.2361 251.172 79.4281C250.298 79.6414 249.455 79.7481 248.644 79.7481C247.322 79.7481 246.18 79.5134 245.22 79.0441C244.282 78.5534 243.556 77.8387 243.044 76.9001C242.554 75.9614 242.308 74.8201 242.308 73.4761V63.0121C242.308 61.6041 242.575 60.4201 243.108 59.4601C243.663 58.5001 244.399 57.7854 245.316 57.3161C246.255 56.8254 247.311 56.5801 248.484 56.5801C249.252 56.5801 250.02 56.6761 250.788 56.8681C251.556 57.0387 252.324 57.3161 253.092 57.7001L252.132 60.6761ZM268.439 60.5161V79.3641H264.919V60.5161H260.247V56.9641H273.175V60.5161H268.439Z" fill="white"/>
</svg>
