<svg width="48" height="48" viewBox="0 0 48 48" fill="none" xmlns="http://www.w3.org/2000/svg">
<path fill-rule="evenodd" clip-rule="evenodd" d="M33.0004 18.6738C33.0004 20.7024 31.3552 22.3476 29.3266 22.3476C27.298 22.3476 25.6537 20.7024 25.6537 18.6738C25.6537 16.6452 27.298 15 29.3266 15C31.3552 15 33.0004 16.6452 33.0004 18.6738Z" stroke="white" stroke-width="1.5" stroke-linecap="round" stroke-linejoin="round"/>
<path fill-rule="evenodd" clip-rule="evenodd" d="M22.3467 18.6738C22.3467 20.7024 20.7024 22.3476 18.6729 22.3476C16.6452 22.3476 15 20.7024 15 18.6738C15 16.6452 16.6452 15 18.6729 15C20.7024 15 22.3467 16.6452 22.3467 18.6738Z" stroke="white" stroke-width="1.5" stroke-linecap="round" stroke-linejoin="round"/>
<path fill-rule="evenodd" clip-rule="evenodd" d="M33.0004 29.2619C33.0004 31.2905 31.3552 32.9348 29.3266 32.9348C27.298 32.9348 25.6537 31.2905 25.6537 29.2619C25.6537 27.2333 27.298 25.5881 29.3266 25.5881C31.3552 25.5881 33.0004 27.2333 33.0004 29.2619Z" stroke="white" stroke-width="1.5" stroke-linecap="round" stroke-linejoin="round"/>
<path fill-rule="evenodd" clip-rule="evenodd" d="M22.3467 29.2619C22.3467 31.2905 20.7024 32.9348 18.6729 32.9348C16.6452 32.9348 15 31.2905 15 29.2619C15 27.2333 16.6452 25.5881 18.6729 25.5881C20.7024 25.5881 22.3467 27.2333 22.3467 29.2619Z" stroke="white" stroke-width="1.5" stroke-linecap="round" stroke-linejoin="round"/>
</svg>
