<svg width="500" height="300" viewBox="0 0 500 300" fill="none" xmlns="http://www.w3.org/2000/svg">
<rect width="500" height="300" fill="white"/>
<mask id="mask0_294_84" style="mask-type:alpha" maskUnits="userSpaceOnUse" x="0" y="0" width="500" height="300">
<rect width="500" height="300" fill="white"/>
</mask>
<g mask="url(#mask0_294_84)">
<path d="M0.000488287 144.5L0.000488671 -8.77245e-07L73.9241 7.59045e-07L500.004 180.348L500.004 218.001L500.004 300.001L420.503 300.001L348.503 300.001L0.000488287 144.5Z" fill="url(#paint0_linear_294_84)"/>
<path d="M260.976 124.312C260.571 124.141 260.091 124.013 259.536 123.928C258.981 123.821 258.459 123.768 257.968 123.768C257.264 123.768 256.667 123.864 256.176 124.056C255.707 124.248 255.344 124.547 255.088 124.952C254.832 125.357 254.704 125.891 254.704 126.552V137.048C254.704 137.709 254.821 138.243 255.056 138.648C255.291 139.032 255.621 139.32 256.048 139.512C256.496 139.683 257.04 139.768 257.68 139.768C258.341 139.768 258.992 139.704 259.632 139.576C260.272 139.448 260.827 139.309 261.296 139.16C261.787 139.011 262.085 138.925 262.192 138.904L262.704 142.264C261.787 142.605 260.891 142.872 260.016 143.064C259.141 143.277 258.299 143.384 257.488 143.384C256.165 143.384 255.024 143.149 254.064 142.68C253.125 142.189 252.4 141.475 251.888 140.536C251.397 139.597 251.152 138.456 251.152 137.112V126.648C251.152 125.24 251.419 124.056 251.952 123.096C252.507 122.136 253.243 121.421 254.16 120.952C255.099 120.461 256.155 120.216 257.328 120.216C258.096 120.216 258.864 120.312 259.632 120.504C260.4 120.675 261.168 120.952 261.936 121.336L260.976 124.312ZM269.952 126.744C269.952 124.568 270.56 122.915 271.776 121.784C272.992 120.632 274.656 120.056 276.768 120.056C278.88 120.056 280.523 120.653 281.696 121.848C282.869 123.043 283.456 124.685 283.456 126.776V137.048C283.456 138.349 283.179 139.48 282.624 140.44C282.069 141.379 281.28 142.104 280.256 142.616C279.253 143.107 278.08 143.352 276.736 143.352C275.477 143.352 274.336 143.117 273.312 142.648C272.288 142.179 271.467 141.475 270.848 140.536C270.251 139.597 269.952 138.435 269.952 137.048V126.744ZM273.504 136.408C273.504 137.091 273.621 137.688 273.856 138.2C274.112 138.691 274.475 139.075 274.944 139.352C275.435 139.608 276.021 139.736 276.704 139.736C277.387 139.736 277.963 139.597 278.432 139.32C278.901 139.043 279.264 138.648 279.52 138.136C279.776 137.624 279.904 137.037 279.904 136.376V127.768C279.904 126.851 279.808 126.104 279.616 125.528C279.424 124.952 279.093 124.525 278.624 124.248C278.155 123.949 277.515 123.8 276.704 123.8C275.957 123.8 275.349 123.939 274.88 124.216C274.411 124.493 274.059 124.931 273.824 125.528C273.611 126.104 273.504 126.851 273.504 127.768V136.408ZM297.919 120.6C298.751 120.6 299.583 120.717 300.415 120.952C301.247 121.187 302.005 121.592 302.687 122.168C303.37 122.744 303.914 123.555 304.319 124.6C304.725 125.624 304.927 126.925 304.927 128.504C304.927 129.763 304.81 130.851 304.575 131.768C304.362 132.685 304.053 133.453 303.647 134.072C303.263 134.691 302.815 135.181 302.303 135.544L305.055 143H301.279L299.071 136.696C298.943 136.717 298.815 136.728 298.687 136.728C298.559 136.728 298.431 136.728 298.303 136.728C298.175 136.728 298.047 136.728 297.919 136.728H294.495V143H290.943V120.6H297.919ZM296.607 133.368C297.439 133.368 298.154 133.315 298.751 133.208C299.349 133.101 299.839 132.888 300.223 132.568C300.607 132.227 300.885 131.736 301.055 131.096C301.247 130.456 301.343 129.592 301.343 128.504C301.343 127.501 301.247 126.712 301.055 126.136C300.885 125.539 300.607 125.101 300.223 124.824C299.839 124.525 299.349 124.333 298.751 124.248C298.154 124.163 297.439 124.12 296.607 124.12H294.495V133.368H296.607ZM312.337 143V120.6H323.057V124.12H315.889V129.752H320.273L319.281 133.112H315.889V139.768H322.993V143H312.337ZM258.288 155.6C259.12 155.6 259.952 155.717 260.784 155.952C261.616 156.187 262.373 156.592 263.056 157.168C263.739 157.744 264.283 158.555 264.688 159.6C265.093 160.624 265.296 161.925 265.296 163.504C265.296 165.253 265.093 166.672 264.688 167.76C264.304 168.827 263.771 169.648 263.088 170.224C262.405 170.8 261.648 171.195 260.816 171.408C260.005 171.621 259.163 171.728 258.288 171.728H254.864V178H251.312V155.6H258.288ZM254.864 168.368H256.976C257.808 168.368 258.523 168.315 259.12 168.208C259.717 168.101 260.208 167.888 260.592 167.568C260.976 167.227 261.253 166.736 261.424 166.096C261.616 165.456 261.712 164.592 261.712 163.504C261.712 162.501 261.616 161.712 261.424 161.136C261.253 160.539 260.976 160.101 260.592 159.824C260.208 159.525 259.717 159.333 259.12 159.248C258.523 159.163 257.808 159.12 256.976 159.12H254.864V168.368ZM279.65 155.6C280.482 155.6 281.314 155.717 282.146 155.952C282.978 156.187 283.736 156.592 284.418 157.168C285.101 157.744 285.645 158.555 286.05 159.6C286.456 160.624 286.658 161.925 286.658 163.504C286.658 164.763 286.541 165.851 286.306 166.768C286.093 167.685 285.784 168.453 285.378 169.072C284.994 169.691 284.546 170.181 284.035 170.544L286.786 178H283.01L280.802 171.696C280.674 171.717 280.546 171.728 280.418 171.728C280.29 171.728 280.162 171.728 280.035 171.728C279.906 171.728 279.778 171.728 279.65 171.728H276.226V178H272.674V155.6H279.65ZM278.338 168.368C279.17 168.368 279.885 168.315 280.483 168.208C281.08 168.101 281.571 167.888 281.955 167.568C282.338 167.227 282.616 166.736 282.786 166.096C282.979 165.456 283.075 164.592 283.075 163.504C283.075 162.501 282.979 161.712 282.786 161.136C282.616 160.539 282.338 160.101 281.955 159.824C281.571 159.525 281.08 159.333 280.483 159.248C279.885 159.163 279.17 159.12 278.338 159.12H276.226V168.368H278.338ZM293.908 161.744C293.908 159.568 294.516 157.915 295.732 156.784C296.948 155.632 298.612 155.056 300.724 155.056C302.836 155.056 304.479 155.653 305.652 156.848C306.826 158.043 307.412 159.685 307.412 161.776V172.048C307.412 173.349 307.135 174.48 306.58 175.44C306.026 176.379 305.236 177.104 304.212 177.616C303.21 178.107 302.036 178.352 300.692 178.352C299.434 178.352 298.292 178.117 297.268 177.648C296.244 177.179 295.423 176.475 294.804 175.536C294.207 174.597 293.908 173.435 293.908 172.048V161.744ZM297.46 171.408C297.46 172.091 297.578 172.688 297.812 173.2C298.068 173.691 298.431 174.075 298.9 174.352C299.391 174.608 299.978 174.736 300.66 174.736C301.343 174.736 301.919 174.597 302.388 174.32C302.858 174.043 303.22 173.648 303.476 173.136C303.732 172.624 303.86 172.037 303.86 171.376V162.768C303.86 161.851 303.764 161.104 303.572 160.528C303.38 159.952 303.05 159.525 302.58 159.248C302.111 158.949 301.471 158.8 300.66 158.8C299.914 158.8 299.306 158.939 298.836 159.216C298.367 159.493 298.015 159.931 297.78 160.528C297.567 161.104 297.46 161.851 297.46 162.768V171.408ZM318.893 173.52C318.893 174.437 318.755 175.248 318.477 175.952C318.221 176.635 317.848 177.211 317.357 177.68C316.867 178.149 316.269 178.501 315.565 178.736C314.861 178.992 314.072 179.141 313.197 179.184L312.045 176.176C312.813 176.176 313.443 176.059 313.933 175.824C314.445 175.568 314.829 175.205 315.085 174.736C315.341 174.267 315.469 173.68 315.469 172.976V159.024L313.485 158.96V155.6H318.893V173.52ZM326.418 178V155.6H337.138V159.12H329.97V164.752H334.354L333.362 168.112H329.97V174.768H337.074V178H326.418ZM354.132 159.312C353.727 159.141 353.247 159.013 352.692 158.928C352.138 158.821 351.615 158.768 351.124 158.768C350.42 158.768 349.823 158.864 349.332 159.056C348.863 159.248 348.5 159.547 348.244 159.952C347.988 160.357 347.86 160.891 347.86 161.552V172.048C347.86 172.709 347.978 173.243 348.212 173.648C348.447 174.032 348.778 174.32 349.204 174.512C349.652 174.683 350.196 174.768 350.836 174.768C351.498 174.768 352.148 174.704 352.788 174.576C353.428 174.448 353.983 174.309 354.452 174.16C354.943 174.011 355.242 173.925 355.348 173.904L355.86 177.264C354.943 177.605 354.047 177.872 353.172 178.064C352.298 178.277 351.455 178.384 350.644 178.384C349.322 178.384 348.18 178.149 347.22 177.68C346.282 177.189 345.556 176.475 345.044 175.536C344.554 174.597 344.308 173.456 344.308 172.112V161.648C344.308 160.24 344.575 159.056 345.108 158.096C345.663 157.136 346.399 156.421 347.316 155.952C348.255 155.461 349.311 155.216 350.484 155.216C351.252 155.216 352.02 155.312 352.788 155.504C353.556 155.675 354.324 155.952 355.092 156.336L354.132 159.312ZM370.439 159.152V178H366.919V159.152H362.247V155.6H375.175V159.152H370.439Z" fill="white"/>
<path d="M200.809 119.943C221.779 118.844 237.257 123.188 239.753 132.325C243.548 146.105 216.287 165.677 178.84 175.963C141.394 186.248 108.041 183.402 104.247 169.871C101.75 160.784 112.785 149.201 131.258 139.415" stroke="white" stroke-width="2" stroke-miterlimit="10"/>
<path d="M207.899 128.73C216.287 129.879 220.98 132.675 222.278 137.268C225.074 147.254 204.853 161.933 177.342 169.572C149.831 177.211 124.618 175.114 121.971 164.879C120.673 160.136 123.17 155.342 130.359 149.9" stroke="white" stroke-width="2" stroke-miterlimit="10"/>
<path d="M211.843 163.381C208.877 171.573 203.442 178.643 196.288 183.615C189.133 188.588 180.612 191.217 171.9 191.141C162.261 191.173 152.897 187.934 145.338 181.954" stroke="white" stroke-width="2" stroke-miterlimit="10"/>
<path d="M137.549 173.466C132.624 166.598 129.986 158.352 130.01 149.9C130.142 138.852 134.654 128.307 142.555 120.584C150.457 112.86 161.101 108.589 172.15 108.709C183.19 108.602 193.821 112.879 201.712 120.602C209.603 128.324 214.108 138.86 214.24 149.9C214.24 150.399 214.24 150.999 214.24 151.548" stroke="white" stroke-width="2" stroke-miterlimit="10"/>
</g>
<defs>
<linearGradient id="paint0_linear_294_84" x1="497" y1="295.5" x2="159.902" y2="434.067" gradientUnits="userSpaceOnUse">
<stop stop-color="#AE00FF"/>
<stop offset="1" stop-color="#2C1DD0"/>
</linearGradient>
</defs>
</svg>
