<svg width="500" height="300" viewBox="0 0 500 300" fill="none" xmlns="http://www.w3.org/2000/svg">
<rect width="500" height="300" rx="2" fill="white"/>
<path d="M278.912 129.236C299.882 128.138 315.36 132.482 317.857 141.619C321.651 155.399 294.39 174.971 256.944 185.256C219.497 195.542 186.145 192.696 182.35 179.165C179.854 170.078 190.888 158.494 209.362 148.708" stroke="black" stroke-width="2" stroke-miterlimit="10"/>
<path d="M286.002 138.024C294.39 139.172 299.083 141.968 300.382 146.562C303.178 156.547 282.956 171.226 255.446 178.866C227.935 186.505 202.721 184.408 200.075 174.172C198.777 169.429 201.273 164.636 208.463 159.194" stroke="black" stroke-width="2" stroke-miterlimit="10"/>
<path d="M289.946 172.674C286.981 180.867 281.546 187.936 274.391 192.909C267.237 197.881 258.716 200.511 250.003 200.435C240.365 200.466 231.001 197.228 223.441 191.248" stroke="black" stroke-width="2" stroke-miterlimit="10"/>
<path d="M215.653 182.76C210.727 175.891 208.089 167.646 208.113 159.194C208.245 148.145 212.757 137.601 220.659 129.877C228.56 122.154 239.205 117.883 250.253 118.002C261.293 117.896 271.925 122.173 279.815 129.895C287.706 137.617 292.211 148.154 292.343 159.194C292.343 159.693 292.343 160.292 292.343 160.841" stroke="black" stroke-width="2" stroke-miterlimit="10"/>
<path d="M224.08 85.312C223.674 85.1413 223.194 85.0133 222.64 84.928C222.085 84.8213 221.562 84.768 221.072 84.768C220.368 84.768 219.77 84.864 219.28 85.056C218.81 85.248 218.448 85.5467 218.192 85.952C217.936 86.3573 217.808 86.8907 217.808 87.552V98.048C217.808 98.7093 217.925 99.2427 218.16 99.648C218.394 100.032 218.725 100.32 219.152 100.512C219.6 100.683 220.144 100.768 220.784 100.768C221.445 100.768 222.096 100.704 222.736 100.576C223.376 100.448 223.93 100.309 224.4 100.16C224.89 100.011 225.189 99.9253 225.296 99.904L225.808 103.264C224.89 103.605 223.994 103.872 223.12 104.064C222.245 104.277 221.402 104.384 220.592 104.384C219.269 104.384 218.128 104.149 217.168 103.68C216.229 103.189 215.504 102.475 214.992 101.536C214.501 100.597 214.256 99.456 214.256 98.112V87.648C214.256 86.24 214.522 85.056 215.056 84.096C215.61 83.136 216.346 82.4213 217.264 81.952C218.202 81.4613 219.258 81.216 220.432 81.216C221.2 81.216 221.968 81.312 222.736 81.504C223.504 81.6747 224.272 81.952 225.04 82.336L224.08 85.312ZM233.056 87.744C233.056 85.568 233.664 83.9147 234.88 82.784C236.096 81.632 237.76 81.056 239.872 81.056C241.984 81.056 243.626 81.6533 244.8 82.848C245.973 84.0427 246.56 85.6853 246.56 87.776V98.048C246.56 99.3493 246.282 100.48 245.728 101.44C245.173 102.379 244.384 103.104 243.36 103.616C242.357 104.107 241.184 104.352 239.84 104.352C238.581 104.352 237.44 104.117 236.416 103.648C235.392 103.179 234.57 102.475 233.952 101.536C233.354 100.597 233.056 99.4347 233.056 98.048V87.744ZM236.608 97.408C236.608 98.0907 236.725 98.688 236.96 99.2C237.216 99.6907 237.578 100.075 238.048 100.352C238.538 100.608 239.125 100.736 239.808 100.736C240.49 100.736 241.066 100.597 241.536 100.32C242.005 100.043 242.368 99.648 242.624 99.136C242.88 98.624 243.008 98.0373 243.008 97.376V88.768C243.008 87.8507 242.912 87.104 242.72 86.528C242.528 85.952 242.197 85.5253 241.728 85.248C241.258 84.9493 240.618 84.8 239.808 84.8C239.061 84.8 238.453 84.9387 237.984 85.216C237.514 85.4933 237.162 85.9307 236.928 86.528C236.714 87.104 236.608 87.8507 236.608 88.768V97.408ZM261.023 81.6C261.855 81.6 262.687 81.7173 263.519 81.952C264.351 82.1867 265.108 82.592 265.791 83.168C266.473 83.744 267.017 84.5547 267.423 85.6C267.828 86.624 268.031 87.9253 268.031 89.504C268.031 90.7627 267.913 91.8507 267.679 92.768C267.465 93.6853 267.156 94.4533 266.751 95.072C266.367 95.6907 265.919 96.1813 265.407 96.544L268.159 104H264.383L262.175 97.696C262.047 97.7173 261.919 97.728 261.791 97.728C261.663 97.728 261.535 97.728 261.407 97.728C261.279 97.728 261.151 97.728 261.023 97.728H257.599V104H254.047V81.6H261.023ZM259.711 94.368C260.543 94.368 261.257 94.3147 261.855 94.208C262.452 94.1013 262.943 93.888 263.327 93.568C263.711 93.2267 263.988 92.736 264.159 92.096C264.351 91.456 264.447 90.592 264.447 89.504C264.447 88.5013 264.351 87.712 264.159 87.136C263.988 86.5387 263.711 86.1013 263.327 85.824C262.943 85.5253 262.452 85.3333 261.855 85.248C261.257 85.1627 260.543 85.12 259.711 85.12H257.599V94.368H259.711ZM275.441 104V81.6H286.161V85.12H278.993V90.752H283.377L282.385 94.112H278.993V100.768H286.097V104H275.441Z" fill="black"/>
<path d="M197.392 215.036C198.224 215.036 199.056 215.153 199.888 215.388C200.72 215.623 201.477 216.028 202.16 216.604C202.842 217.18 203.386 217.991 203.792 219.036C204.197 220.06 204.4 221.361 204.4 222.94C204.4 224.689 204.197 226.108 203.792 227.196C203.408 228.263 202.874 229.084 202.192 229.66C201.509 230.236 200.752 230.631 199.92 230.844C199.109 231.057 198.266 231.164 197.392 231.164H193.968V237.436H190.416V215.036H197.392ZM193.968 227.804H196.08C196.912 227.804 197.626 227.751 198.224 227.644C198.821 227.537 199.312 227.324 199.696 227.004C200.08 226.663 200.357 226.172 200.528 225.532C200.72 224.892 200.816 224.028 200.816 222.94C200.816 221.937 200.72 221.148 200.528 220.572C200.357 219.975 200.08 219.537 199.696 219.26C199.312 218.961 198.821 218.769 198.224 218.684C197.626 218.599 196.912 218.556 196.08 218.556H193.968V227.804ZM218.754 215.036C219.586 215.036 220.418 215.153 221.25 215.388C222.082 215.623 222.839 216.028 223.522 216.604C224.205 217.18 224.749 217.991 225.154 219.036C225.559 220.06 225.762 221.361 225.762 222.94C225.762 224.199 225.645 225.287 225.41 226.204C225.197 227.121 224.887 227.889 224.482 228.508C224.098 229.127 223.65 229.617 223.138 229.98L225.89 237.436H222.114L219.906 231.132C219.778 231.153 219.65 231.164 219.522 231.164C219.394 231.164 219.266 231.164 219.138 231.164C219.01 231.164 218.882 231.164 218.754 231.164H215.33V237.436H211.778V215.036H218.754ZM217.442 227.804C218.274 227.804 218.989 227.751 219.586 227.644C220.183 227.537 220.674 227.324 221.058 227.004C221.442 226.663 221.719 226.172 221.89 225.532C222.082 224.892 222.178 224.028 222.178 222.94C222.178 221.937 222.082 221.148 221.89 220.572C221.719 219.975 221.442 219.537 221.058 219.26C220.674 218.961 220.183 218.769 219.586 218.684C218.989 218.599 218.274 218.556 217.442 218.556H215.33V227.804H217.442ZM233.012 221.18C233.012 219.004 233.62 217.351 234.836 216.22C236.052 215.068 237.716 214.492 239.828 214.492C241.94 214.492 243.582 215.089 244.756 216.284C245.929 217.479 246.516 219.121 246.516 221.212V231.484C246.516 232.785 246.238 233.916 245.684 234.876C245.129 235.815 244.34 236.54 243.316 237.052C242.313 237.543 241.14 237.788 239.796 237.788C238.537 237.788 237.396 237.553 236.372 237.084C235.348 236.615 234.526 235.911 233.908 234.972C233.31 234.033 233.012 232.871 233.012 231.484V221.18ZM236.564 230.844C236.564 231.527 236.681 232.124 236.916 232.636C237.172 233.127 237.534 233.511 238.004 233.788C238.494 234.044 239.081 234.172 239.764 234.172C240.446 234.172 241.022 234.033 241.492 233.756C241.961 233.479 242.324 233.084 242.58 232.572C242.836 232.06 242.964 231.473 242.964 230.812V222.204C242.964 221.287 242.868 220.54 242.676 219.964C242.484 219.388 242.153 218.961 241.684 218.684C241.214 218.385 240.574 218.236 239.764 218.236C239.017 218.236 238.409 218.375 237.94 218.652C237.47 218.929 237.118 219.367 236.884 219.964C236.67 220.54 236.564 221.287 236.564 222.204V230.844ZM257.997 232.956C257.997 233.873 257.858 234.684 257.581 235.388C257.325 236.071 256.951 236.647 256.461 237.116C255.97 237.585 255.373 237.937 254.669 238.172C253.965 238.428 253.175 238.577 252.301 238.62L251.149 235.612C251.917 235.612 252.546 235.495 253.037 235.26C253.549 235.004 253.933 234.641 254.189 234.172C254.445 233.703 254.573 233.116 254.573 232.412V218.46L252.589 218.396V215.036H257.997V232.956ZM265.522 237.436V215.036H276.242V218.556H269.074V224.188H273.458L272.466 227.548H269.074V234.204H276.178V237.436H265.522ZM293.236 218.748C292.83 218.577 292.35 218.449 291.796 218.364C291.241 218.257 290.718 218.204 290.228 218.204C289.524 218.204 288.926 218.3 288.436 218.492C287.966 218.684 287.604 218.983 287.348 219.388C287.092 219.793 286.964 220.327 286.964 220.988V231.484C286.964 232.145 287.081 232.679 287.316 233.084C287.55 233.468 287.881 233.756 288.308 233.948C288.756 234.119 289.3 234.204 289.94 234.204C290.601 234.204 291.252 234.14 291.892 234.012C292.532 233.884 293.086 233.745 293.556 233.596C294.046 233.447 294.345 233.361 294.452 233.34L294.964 236.7C294.046 237.041 293.15 237.308 292.276 237.5C291.401 237.713 290.558 237.82 289.748 237.82C288.425 237.82 287.284 237.585 286.324 237.116C285.385 236.625 284.66 235.911 284.148 234.972C283.657 234.033 283.412 232.892 283.412 231.548V221.084C283.412 219.676 283.678 218.492 284.212 217.532C284.766 216.572 285.502 215.857 286.42 215.388C287.358 214.897 288.414 214.652 289.588 214.652C290.356 214.652 291.124 214.748 291.892 214.94C292.66 215.111 293.428 215.388 294.196 215.772L293.236 218.748ZM309.543 218.588V237.436H306.023V218.588H301.351V215.036H314.279V218.588H309.543Z" fill="black"/>
</svg>
