<svg width="500" height="300" viewBox="0 0 500 300" fill="none" xmlns="http://www.w3.org/2000/svg">
<rect width="500" height="300" rx="2" fill="white"/>
<rect x="248" y="127" width="78" height="32" fill="#2A1CCF"/>
<rect x="248" y="163" width="130" height="32" fill="#938BEE"/>
<path d="M260.976 135.312C260.571 135.141 260.091 135.013 259.536 134.928C258.981 134.821 258.459 134.768 257.968 134.768C257.264 134.768 256.667 134.864 256.176 135.056C255.707 135.248 255.344 135.547 255.088 135.952C254.832 136.357 254.704 136.891 254.704 137.552V148.048C254.704 148.709 254.821 149.243 255.056 149.648C255.291 150.032 255.621 150.32 256.048 150.512C256.496 150.683 257.04 150.768 257.68 150.768C258.341 150.768 258.992 150.704 259.632 150.576C260.272 150.448 260.827 150.309 261.296 150.16C261.787 150.011 262.085 149.925 262.192 149.904L262.704 153.264C261.787 153.605 260.891 153.872 260.016 154.064C259.141 154.277 258.299 154.384 257.488 154.384C256.165 154.384 255.024 154.149 254.064 153.68C253.125 153.189 252.4 152.475 251.888 151.536C251.397 150.597 251.152 149.456 251.152 148.112V137.648C251.152 136.24 251.419 135.056 251.952 134.096C252.507 133.136 253.243 132.421 254.16 131.952C255.099 131.461 256.155 131.216 257.328 131.216C258.096 131.216 258.864 131.312 259.632 131.504C260.4 131.675 261.168 131.952 261.936 132.336L260.976 135.312ZM269.952 137.744C269.952 135.568 270.56 133.915 271.776 132.784C272.992 131.632 274.656 131.056 276.768 131.056C278.88 131.056 280.523 131.653 281.696 132.848C282.869 134.043 283.456 135.685 283.456 137.776V148.048C283.456 149.349 283.179 150.48 282.624 151.44C282.069 152.379 281.28 153.104 280.256 153.616C279.253 154.107 278.08 154.352 276.736 154.352C275.477 154.352 274.336 154.117 273.312 153.648C272.288 153.179 271.467 152.475 270.848 151.536C270.251 150.597 269.952 149.435 269.952 148.048V137.744ZM273.504 147.408C273.504 148.091 273.621 148.688 273.856 149.2C274.112 149.691 274.475 150.075 274.944 150.352C275.435 150.608 276.021 150.736 276.704 150.736C277.387 150.736 277.963 150.597 278.432 150.32C278.901 150.043 279.264 149.648 279.52 149.136C279.776 148.624 279.904 148.037 279.904 147.376V138.768C279.904 137.851 279.808 137.104 279.616 136.528C279.424 135.952 279.093 135.525 278.624 135.248C278.155 134.949 277.515 134.8 276.704 134.8C275.957 134.8 275.349 134.939 274.88 135.216C274.411 135.493 274.059 135.931 273.824 136.528C273.611 137.104 273.504 137.851 273.504 138.768V147.408ZM297.919 131.6C298.751 131.6 299.583 131.717 300.415 131.952C301.247 132.187 302.005 132.592 302.687 133.168C303.37 133.744 303.914 134.555 304.319 135.6C304.725 136.624 304.927 137.925 304.927 139.504C304.927 140.763 304.81 141.851 304.575 142.768C304.362 143.685 304.053 144.453 303.647 145.072C303.263 145.691 302.815 146.181 302.303 146.544L305.055 154H301.279L299.071 147.696C298.943 147.717 298.815 147.728 298.687 147.728C298.559 147.728 298.431 147.728 298.303 147.728C298.175 147.728 298.047 147.728 297.919 147.728H294.495V154H290.943V131.6H297.919ZM296.607 144.368C297.439 144.368 298.154 144.315 298.751 144.208C299.349 144.101 299.839 143.888 300.223 143.568C300.607 143.227 300.885 142.736 301.055 142.096C301.247 141.456 301.343 140.592 301.343 139.504C301.343 138.501 301.247 137.712 301.055 137.136C300.885 136.539 300.607 136.101 300.223 135.824C299.839 135.525 299.349 135.333 298.751 135.248C298.154 135.163 297.439 135.12 296.607 135.12H294.495V144.368H296.607ZM312.337 154V131.6H323.057V135.12H315.889V140.752H320.273L319.281 144.112H315.889V150.768H322.993V154H312.337ZM258.288 166.6C259.12 166.6 259.952 166.717 260.784 166.952C261.616 167.187 262.373 167.592 263.056 168.168C263.739 168.744 264.283 169.555 264.688 170.6C265.093 171.624 265.296 172.925 265.296 174.504C265.296 176.253 265.093 177.672 264.688 178.76C264.304 179.827 263.771 180.648 263.088 181.224C262.405 181.8 261.648 182.195 260.816 182.408C260.005 182.621 259.163 182.728 258.288 182.728H254.864V189H251.312V166.6H258.288ZM254.864 179.368H256.976C257.808 179.368 258.523 179.315 259.12 179.208C259.717 179.101 260.208 178.888 260.592 178.568C260.976 178.227 261.253 177.736 261.424 177.096C261.616 176.456 261.712 175.592 261.712 174.504C261.712 173.501 261.616 172.712 261.424 172.136C261.253 171.539 260.976 171.101 260.592 170.824C260.208 170.525 259.717 170.333 259.12 170.248C258.523 170.163 257.808 170.12 256.976 170.12H254.864V179.368ZM279.65 166.6C280.482 166.6 281.314 166.717 282.146 166.952C282.978 167.187 283.736 167.592 284.418 168.168C285.101 168.744 285.645 169.555 286.05 170.6C286.456 171.624 286.658 172.925 286.658 174.504C286.658 175.763 286.541 176.851 286.306 177.768C286.093 178.685 285.784 179.453 285.378 180.072C284.994 180.691 284.546 181.181 284.035 181.544L286.786 189H283.01L280.802 182.696C280.674 182.717 280.546 182.728 280.418 182.728C280.29 182.728 280.162 182.728 280.035 182.728C279.906 182.728 279.778 182.728 279.65 182.728H276.226V189H272.674V166.6H279.65ZM278.338 179.368C279.17 179.368 279.885 179.315 280.483 179.208C281.08 179.101 281.571 178.888 281.955 178.568C282.338 178.227 282.616 177.736 282.786 177.096C282.979 176.456 283.075 175.592 283.075 174.504C283.075 173.501 282.979 172.712 282.786 172.136C282.616 171.539 282.338 171.101 281.955 170.824C281.571 170.525 281.08 170.333 280.483 170.248C279.885 170.163 279.17 170.12 278.338 170.12H276.226V179.368H278.338ZM293.908 172.744C293.908 170.568 294.516 168.915 295.732 167.784C296.948 166.632 298.612 166.056 300.724 166.056C302.836 166.056 304.479 166.653 305.652 167.848C306.826 169.043 307.412 170.685 307.412 172.776V183.048C307.412 184.349 307.135 185.48 306.58 186.44C306.026 187.379 305.236 188.104 304.212 188.616C303.21 189.107 302.036 189.352 300.692 189.352C299.434 189.352 298.292 189.117 297.268 188.648C296.244 188.179 295.423 187.475 294.804 186.536C294.207 185.597 293.908 184.435 293.908 183.048V172.744ZM297.46 182.408C297.46 183.091 297.578 183.688 297.812 184.2C298.068 184.691 298.431 185.075 298.9 185.352C299.391 185.608 299.978 185.736 300.66 185.736C301.343 185.736 301.919 185.597 302.388 185.32C302.858 185.043 303.22 184.648 303.476 184.136C303.732 183.624 303.86 183.037 303.86 182.376V173.768C303.86 172.851 303.764 172.104 303.572 171.528C303.38 170.952 303.05 170.525 302.58 170.248C302.111 169.949 301.471 169.8 300.66 169.8C299.914 169.8 299.306 169.939 298.836 170.216C298.367 170.493 298.015 170.931 297.78 171.528C297.567 172.104 297.46 172.851 297.46 173.768V182.408ZM318.893 184.52C318.893 185.437 318.755 186.248 318.477 186.952C318.221 187.635 317.848 188.211 317.357 188.68C316.867 189.149 316.269 189.501 315.565 189.736C314.861 189.992 314.072 190.141 313.197 190.184L312.045 187.176C312.813 187.176 313.443 187.059 313.933 186.824C314.445 186.568 314.829 186.205 315.085 185.736C315.341 185.267 315.469 184.68 315.469 183.976V170.024L313.485 169.96V166.6H318.893V184.52ZM326.418 189V166.6H337.138V170.12H329.97V175.752H334.354L333.362 179.112H329.97V185.768H337.074V189H326.418ZM354.132 170.312C353.727 170.141 353.247 170.013 352.692 169.928C352.138 169.821 351.615 169.768 351.124 169.768C350.42 169.768 349.823 169.864 349.332 170.056C348.863 170.248 348.5 170.547 348.244 170.952C347.988 171.357 347.86 171.891 347.86 172.552V183.048C347.86 183.709 347.978 184.243 348.212 184.648C348.447 185.032 348.778 185.32 349.204 185.512C349.652 185.683 350.196 185.768 350.836 185.768C351.498 185.768 352.148 185.704 352.788 185.576C353.428 185.448 353.983 185.309 354.452 185.16C354.943 185.011 355.242 184.925 355.348 184.904L355.86 188.264C354.943 188.605 354.047 188.872 353.172 189.064C352.298 189.277 351.455 189.384 350.644 189.384C349.322 189.384 348.18 189.149 347.22 188.68C346.282 188.189 345.556 187.475 345.044 186.536C344.554 185.597 344.308 184.456 344.308 183.112V172.648C344.308 171.24 344.575 170.056 345.108 169.096C345.663 168.136 346.399 167.421 347.316 166.952C348.255 166.461 349.311 166.216 350.484 166.216C351.252 166.216 352.02 166.312 352.788 166.504C353.556 166.675 354.324 166.952 355.092 167.336L354.132 170.312ZM370.439 170.152V189H366.919V170.152H362.247V166.6H375.175V170.152H370.439Z" fill="white"/>
<path d="M200.809 130.943C221.779 129.844 237.257 134.188 239.753 143.325C243.548 157.105 216.287 176.677 178.84 186.963C141.394 197.248 108.041 194.402 104.247 180.871C101.75 171.784 112.785 160.201 131.258 150.415" stroke="black" stroke-width="2" stroke-miterlimit="10"/>
<path d="M207.899 139.73C216.287 140.879 220.98 143.675 222.278 148.268C225.074 158.254 204.853 172.933 177.342 180.572C149.831 188.211 124.618 186.114 121.971 175.879C120.673 171.136 123.17 166.342 130.359 160.9" stroke="black" stroke-width="2" stroke-miterlimit="10"/>
<path d="M211.843 174.381C208.877 182.573 203.442 189.643 196.288 194.615C189.133 199.588 180.612 202.217 171.9 202.141C162.261 202.173 152.897 198.934 145.338 192.954" stroke="black" stroke-width="2" stroke-miterlimit="10"/>
<path d="M137.549 184.466C132.624 177.598 129.986 169.352 130.01 160.9C130.142 149.852 134.654 139.307 142.555 131.584C150.457 123.86 161.101 119.589 172.15 119.709C183.19 119.602 193.821 123.879 201.712 131.602C209.603 139.324 214.108 149.86 214.24 160.9C214.24 161.399 214.24 161.999 214.24 162.548" stroke="black" stroke-width="2" stroke-miterlimit="10"/>
</svg>
