<svg width="51" height="51" viewBox="0 0 51 51" fill="none" xmlns="http://www.w3.org/2000/svg">
<path d="M34.9546 26.4912H34.9762M25.333 26.4912H25.3546M15.7114 26.4912H15.733M42.4713 42.4677C35.1365 49.8032 24.2755 51.3881 15.3874 47.2776C14.0753 46.7494 12.9996 46.3224 11.9769 46.3224C9.12837 46.3393 5.5828 49.1013 3.74006 47.2608C1.89733 45.4178 4.66143 41.8694 4.66143 39.0037C4.66143 37.9809 4.2514 36.9244 3.72318 35.6097C-0.389206 26.7231 1.19786 15.8585 8.53262 8.5253C17.8958 -0.841363 33.108 -0.841363 42.4713 8.52288C51.8514 17.904 51.8345 33.1034 42.4713 42.4677Z" stroke="#4B4B4B" stroke-width="3" stroke-linecap="round" stroke-linejoin="round"/>
</svg>
