<svg width="48" height="48" viewBox="0 0 48 48" fill="none" xmlns="http://www.w3.org/2000/svg">
<path d="M29.7098 19.3297C30.0027 19.0368 30.0027 18.562 29.7098 18.2691C29.4169 17.9762 28.9421 17.9762 28.6492 18.2691L29.1795 18.7994L29.7098 19.3297ZM18.2881 28.6302L17.7578 29.1605L18.8184 30.2211L19.3487 29.6908L18.8184 29.1605L18.2881 28.6302ZM28.6493 29.6974C28.9422 29.9903 29.417 29.9903 29.71 29.6975C30.0029 29.4046 30.0029 28.9297 29.7101 28.6368L29.1797 29.1671L28.6493 29.6974ZM19.3404 18.2649L18.8101 17.7345L17.7493 18.7951L18.2796 19.3255L18.81 18.7952L19.3404 18.2649ZM29.1795 18.7994L28.6492 18.2691L18.2881 28.6302L18.8184 29.1605L19.3487 29.6908L29.7098 19.3297L29.1795 18.7994ZM29.1797 29.1671L29.7101 28.6368L19.3404 18.2649L18.81 18.7952L18.2796 19.3255L28.6493 29.6974L29.1797 29.1671ZM4 24H3.25C3.25 35.4599 12.5401 44.75 24 44.75V44V43.25C13.3685 43.25 4.75 34.6315 4.75 24H4ZM24 4V3.25C12.5401 3.25 3.25 12.5401 3.25 24H4H4.75C4.75 13.3685 13.3685 4.75 24 4.75V4ZM44 24H44.75C44.75 12.5401 35.4599 3.25 24 3.25V4V4.75C34.6315 4.75 43.25 13.3685 43.25 24H44ZM44 24H43.25C43.25 34.6315 34.6315 43.25 24 43.25V44V44.75C35.4599 44.75 44.75 35.4599 44.75 24H44Z" fill="white"/>
</svg>
