<svg width="40" height="40" viewBox="0 0 40 40" fill="none" xmlns="http://www.w3.org/2000/svg">
<path d="M24.04 19.2397C24.4823 19.2382 24.839 19.5949 24.8376 20.0372C24.836 20.4794 24.4767 20.8389 24.0345 20.8403L15.8758 20.8672L14.0045 28.4479C13.9364 28.7236 14.1011 28.8857 14.1764 28.9458C14.2518 29.003 14.4533 29.1223 14.7026 28.9872L22.3282 24.8544C22.7198 24.6433 23.2052 24.786 23.413 25.1755C23.6216 25.5643 23.4751 26.0506 23.085 26.2617L15.4594 30.3932C14.7215 30.7925 13.854 30.7245 13.1945 30.215C13.12 30.1587 13.0513 30.098 12.9866 30.0334C12.4765 29.5233 12.2719 28.7943 12.4501 28.073L14.4733 19.8805C14.5629 19.5218 14.8846 19.2677 15.2536 19.2673L24.04 19.2397ZM31.167 18.2363C31.8323 18.6018 32.2457 19.3051 32.2387 20.069C32.2325 20.8319 31.8115 21.5323 31.138 21.8975L27.0376 24.1197C26.6475 24.3307 26.1636 24.188 25.9535 23.7992C25.745 23.4105 25.8914 22.924 26.2808 22.7137L30.3826 20.4916C30.612 20.3673 30.6377 20.1539 30.6381 20.0676C30.6391 19.9808 30.6144 19.7646 30.3902 19.6415L14.7634 11.0554C14.515 10.919 14.3116 11.0378 14.2358 11.0955C14.1609 11.1538 13.9907 11.3179 14.0563 11.5954L15.0368 15.7096C15.1389 16.1388 14.8729 16.573 14.4416 16.6778C14.1614 16.7457 13.8799 16.6575 13.6896 16.4672C13.5895 16.3671 13.514 16.2394 13.479 16.0908L12.4998 11.9752C12.3054 11.16 12.5995 10.3365 13.2684 9.8256C13.938 9.314 14.8092 9.24793 15.5423 9.6509L31.167 18.2363Z" fill="#312A58"/>
</svg>
