<svg width="48" height="48" viewBox="0 0 48 48" fill="none" xmlns="http://www.w3.org/2000/svg">
<path d="M25.5103 4C27.1023 4.00004 28.5435 4.84017 29.3395 6.08008C29.7268 6.68008 29.9849 7.4202 29.9203 8.2002C29.8773 8.80012 30.0716 9.40003 30.4158 9.95996C31.5131 11.6599 33.944 12.2998 35.8373 11.3398C37.9673 10.1798 40.6564 10.8804 41.8828 12.8604L43.325 15.2197C44.5729 17.1997 43.8841 19.7398 41.7327 20.8799C39.904 21.8998 39.2582 24.1599 40.3552 25.8799C40.6995 26.4199 41.0871 26.8802 41.6895 27.1602C42.4425 27.5402 43.0232 28.1403 43.4319 28.7402C44.228 29.9802 44.1633 31.4999 43.3888 32.8398L41.8828 35.2402C41.0867 36.52 39.6026 37.3202 38.0752 37.3203C37.3222 37.3203 36.4826 37.1197 35.7941 36.7197C35.2348 36.3799 34.589 36.2598 33.9006 36.2598C31.7708 36.26 29.9848 37.9205 29.9203 39.9004C29.9201 42.2002 27.9412 44 25.4671 44H22.5415C20.0459 44 18.066 42.2002 18.0658 39.9004C18.0227 37.9204 16.2371 36.2598 14.1071 36.2598C13.3971 36.2598 12.7514 36.3798 12.2135 36.7197C11.5252 37.1196 10.6649 37.3203 9.93351 37.3203C8.38445 37.3203 6.89937 36.5202 6.1033 35.2402L4.61892 32.8398C3.82303 31.54 3.77992 29.9801 4.57574 28.7402C4.91998 28.1402 5.56608 27.5402 6.29759 27.1602C6.89988 26.8802 7.28674 26.4198 7.65245 25.8799C8.72819 24.1599 8.08312 21.8999 6.25441 20.8799C4.12442 19.7399 3.43573 17.1997 4.66209 15.2197L6.1033 12.8604C7.35109 10.8805 10.0189 10.1802 12.1704 11.3398C14.0422 12.2998 16.4741 11.66 17.5713 9.95996C17.9155 9.40005 18.1088 8.8001 18.0658 8.2002C18.0227 7.42027 18.2594 6.68005 18.6682 6.08008C19.4642 4.84008 20.9062 4.04 22.4768 4H25.5103ZM24.0259 18.3604C20.6482 18.3604 17.916 20.8797 17.9157 24.0195C17.9157 27.1595 20.6481 29.6602 24.0259 29.6602C27.4037 29.66 30.0714 27.1594 30.0714 24.0195C30.0712 20.8798 27.4035 18.3605 24.0259 18.3604Z" fill="white"/>
</svg>
