<svg width="20" height="20" viewBox="0 0 20 20" fill="none" xmlns="http://www.w3.org/2000/svg">
<path fill-rule="evenodd" clip-rule="evenodd" d="M10.1292 7.83333H10.1217C9.77667 7.83333 9.49667 7.55333 9.49667 7.20833C9.49667 6.86333 9.77667 6.58333 10.1217 6.58333C10.4667 6.58333 10.7508 6.86333 10.7508 7.20833C10.7508 7.55333 10.4742 7.83333 10.1292 7.83333ZM10.75 13.3708C10.75 13.7158 10.47 13.9958 10.125 13.9958C9.78 13.9958 9.5 13.7158 9.5 13.3708V10.125C9.5 9.78 9.78 9.5 10.125 9.5C10.47 9.5 10.75 9.78 10.75 10.125V13.3708ZM10.125 2C4.12667 2 2 4.12667 2 10.125C2 16.1233 4.12667 18.25 10.125 18.25C16.1233 18.25 18.25 16.1233 18.25 10.125C18.25 4.12667 16.1233 2 10.125 2Z" fill="#79C3FF"/>
</svg>
